<svg xmlns="http://www.w3.org/2000/svg" viewBox="0 0 48 48">
  <path d="M19.251953 4.1816406 A 1.50015 1.50015 0 0 0 18.685547 4.2714844C10.83761 7.1389995 5 14.64879 5 23.509766C5 34.810061 14.189939 44 25.490234 44C34.35121 44 41.861 38.16239 44.728516 30.314453 A 1.50015 1.50015 0 0 0 42.517578 28.533203C40.047672 30.097477 37.14137 31 34 31C25.151594 31 18 23.848406 18 15C18 11.85863 18.902523 8.952328 20.466797 6.4824219 A 1.50015 1.50015 0 0 0 19.251953 4.1816406 z M 16.013672 9.1054688C15.398281 10.971348 15 12.931096 15 15C15 25.471594 23.528406 34 34 34C36.068904 34 38.028652 33.601719 39.894531 32.986328C36.753979 37.718438 31.532998 41 25.490234 41C15.81053 41 8 33.18947 8 23.509766C8 17.467002 11.281562 12.246021 16.013672 9.1054688 z" fill="#969696" />
</svg>