<svg xmlns="http://www.w3.org/2000/svg" width="48" height="48" viewBox="0 0 48 48">
  <path d="M23.976562 3.9785156 A 1.50015 1.50015 0 0 0 22.5 5.5L22.5 8.5 A 1.50015 1.50015 0 1 0 25.5 8.5L25.5 5.5 A 1.50015 1.50015 0 0 0 23.976562 3.9785156 z M 10.902344 9.4042969 A 1.50015 1.50015 0 0 0 9.8574219 11.980469L11.978516 14.101562 A 1.5012202 1.5012202 0 0 0 14.101562 11.978516L11.980469 9.8574219 A 1.50015 1.50015 0 0 0 10.902344 9.4042969 z M 37.050781 9.4042969 A 1.50015 1.50015 0 0 0 36.019531 9.8574219L33.898438 11.978516 A 1.5012202 1.5012202 0 0 0 36.021484 14.101562L38.142578 11.980469 A 1.50015 1.50015 0 0 0 37.050781 9.4042969 z M 24 13C17.942632 13 13 17.942636 13 24C13 30.057364 17.942632 35 24 35C30.057368 35 35 30.057364 35 24C35 17.942636 30.057368 13 24 13 z M 24 16C28.436049 16 32 19.563954 32 24C32 28.436046 28.436049 32 24 32C19.563951 32 16 28.436046 16 24C16 19.563954 19.563951 16 24 16 z M 5.5 22.5 A 1.50015 1.50015 0 1 0 5.5 25.5L8.5 25.5 A 1.50015 1.50015 0 1 0 8.5 22.5L5.5 22.5 z M 39.5 22.5 A 1.50015 1.50015 0 1 0 39.5 25.5L42.5 25.5 A 1.50015 1.50015 0 1 0 42.5 22.5L39.5 22.5 z M 13.009766 33.445312 A 1.50015 1.50015 0 0 0 11.978516 33.898438L9.8574219 36.019531 A 1.501221 1.501221 0 1 0 11.980469 38.142578L14.101562 36.021484 A 1.50015 1.50015 0 0 0 13.009766 33.445312 z M 34.943359 33.445312 A 1.50015 1.50015 0 0 0 33.898438 36.021484L36.019531 38.142578 A 1.5012209 1.5012209 0 1 0 38.142578 36.019531L36.021484 33.898438 A 1.50015 1.50015 0 0 0 34.943359 33.445312 z M 23.976562 37.978516 A 1.50015 1.50015 0 0 0 22.5 39.5L22.5 42.5 A 1.50015 1.50015 0 1 0 25.5 42.5L25.5 39.5 A 1.50015 1.50015 0 0 0 23.976562 37.978516 z" fill="#969696" />
</svg>