<?xml version="1.0" encoding="utf-8"?>
<svg xmlns="http://www.w3.org/2000/svg" viewBox="0 0 48 48" width="18" height="18">
  <path fill="#795548" d="M25,14h-2c0-6.3,3.2-9.6,3.3-9.7l1.4,1.4L27,5l0.7,0.7C27.7,5.7,25,8.6,25,14z" />
  <path fill="#4caf50" d="M24,14c0,0-1.3-12.5-14-8C11.4,19,24,14,24,14z" />
  <path fill="#f44336" d="M6.3,25.9C4.4,15.9,11.9,5.8,24,14c4.626-3.135,8.579-3.61,11.592-2.436 c4.868,1.897,6.281,8.097,5.108,14.336C38.9,36,29.973,42.603,24,38.7C18.4,45.5,8.1,36,6.3,25.9z" />
  <path fill="#d32f2f" d="M41.7,25.9c-1.77,9.95-11.8,19.32-17.45,13.09C24.17,38.9,24.08,38.8,24,38.7 c-1.32,1.6-2.89,2.3-4.56,2.3c-0.23,0-0.45-0.01-0.68-0.04c-0.21-0.02-0.42-0.05-0.63-0.1c-0.25-0.05-0.5-0.12-0.75-0.19 c-0.22-0.07-0.45-0.15-0.67-0.24c-0.02-0.01-0.05-0.02-0.08-0.03c-0.21-0.09-0.43-0.19-0.64-0.3c-0.23-0.11-0.46-0.24-0.7-0.37 c-0.23-0.14-0.45-0.28-0.68-0.44c-0.45-0.31-0.9-0.65-1.35-1.03c-0.22-0.19-0.44-0.39-0.65-0.6c-0.31-0.3-0.62-0.61-0.92-0.95 c-0.2-0.21-0.39-0.43-0.58-0.66c-0.72-0.85-1.39-1.79-1.98-2.79c2.83,3.16,9,6.57,12.37,3.78c3.39-2.8,5.22,1.22,7.76,1.04 c2.54-0.19,8.326-3.868,9.74-15.12c1-7.96-2.6-10.98-3.41-11.39C40.46,13.46,42.87,19.66,41.7,25.9z" />
</svg>