<?xml version="1.0" encoding="utf-8"?>
<svg xmlns="http://www.w3.org/2000/svg" viewBox="0 0 48 48" width="18" height="18">
  <path fill="#ffa726" d="M33,26.5C33,16.8,27,9,19.5,9S6,16.8,6,26.5S12,44,19.5,44S33,36.2,33,26.5z" />
  <path fill="#f7953e" d="M15,26.5c0-0.6,0.3-12.2,9-16.5c0,0,0,0,0,0c-0.8-0.4-1.7-0.7-2.6-0.8c-5,3.3-8.3,8.5-8.1,16.1 c0.2,5.4,2.2,9.2,4.5,11.9C16.1,34.2,15,30.5,15,26.5z" />
  <path fill="#f7953e" d="M19.4,13.6c-0.5,0.1-1.1,0.1-1.7,0.1c-1.8,0-3.8-0.4-5.8-1.7c-0.6,0.5-1.1,1.1-1.6,1.7 c2.4,2,4.9,3,6.9,3.2C17.8,15.7,18.5,14.6,19.4,13.6z" />
  <path fill="#4caf50" d="M24,12.1c0,0-2.1-11.4-18-7.1C13,19,24,12.1,24,12.1z" />
  <path fill="#2e7d32" d="M22.3,12.7c-1.8-2.4-4.4-4.2-7.2-5.4c-1.4-0.6-2.9-1.1-4.4-1.5C9.1,5.4,7.6,5.1,6,5 c1.6-0.1,3.2,0.1,4.7,0.3c1.6,0.2,3.1,0.6,4.7,1.1c1.5,0.5,3,1.1,4.4,2c1.4,0.8,2.8,1.9,3.9,3.1L22.3,12.7z" />
  <path fill="#795548" d="M24,12c-0.6,0-1-0.4-1-1c0-2.4-2.5-4.2-2.6-4.2c-0.5-0.3-0.6-0.9-0.3-1.4c0.3-0.5,0.9-0.6,1.4-0.3 C21.7,5.3,25,7.5,25,11C25,11.6,24.6,12,24,12z" />
  <path fill="#ffb74d" d="M42,26.5C42,16.8,36,9,28.5,9S15,16.8,15,26.5S21,44,28.5,44S42,36.2,42,26.5z" />
  <path fill="#ff7448" d="M32 38c0 .6-.4 1-1 1s-1-.4-1-1 .4-1 1-1S32 37.4 32 38zM36 36c0 .6-.4 1-1 1s-1-.4-1-1 .4-1 1-1S36 35.4 36 36zM34 32c0 .6-.4 1-1 1s-1-.4-1-1 .4-1 1-1S34 31.4 34 32zM38 31c0 .6-.4 1-1 1s-1-.4-1-1 .4-1 1-1S38 30.4 38 31zM38 26c0 .6-.4 1-1 1s-1-.4-1-1 .4-1 1-1S38 25.4 38 26zM37 21c0 .6-.4 1-1 1s-1-.4-1-1 .4-1 1-1S37 20.4 37 21zM34 27c0 .6-.4 1-1 1s-1-.4-1-1 .4-1 1-1S34 26.4 34 27z" />
</svg>