<?xml version="1.0" encoding="utf-8"?>
<svg xmlns="http://www.w3.org/2000/svg" viewBox="0 0 48 48" width="18" height="18">
  <path fill="#795548" d="M28,10c-0.6,0-1-0.4-1-1c0-3.4,2.2-5.6,2.3-5.7c0.4-0.4,1-0.4,1.4,0c0.4,0.4,0.4,1,0,1.4 c0,0-1.7,1.8-1.7,4.3C29,9.6,28.6,10,28,10z" />
  <path fill="#558b2f" d="M25.1,7C17.5,7,10,20.4,10,32c0,8,6.4,13,14,13s14-5,14-13c0-9.5-5.6-11.3-5.6-20.8 C32.4,8.7,30,8,28,8C27.2,8,27,7,25.1,7z" />
  <path fill="#dce775" d="M33.4,22.5c-1.4-2.8-3-6.1-3-11.3c0-1.1-1.9-1.2-2.4-1.2c-0.9,0-1.6-0.4-1.9-0.7 c-0.3-0.2-0.4-0.3-1-0.3C19,9,12,21.3,12,32c0,7.2,6,11,12,11s12-3.8,12-11C36,27.7,34.8,25.2,33.4,22.5z" />
  <path fill="#fff59d" d="M15,33c0-5,4-16,9-16s9,11,9,16s-4,9-9,9S15,38,15,33z" />
  <path fill="#962005" d="M30,33c0,3.3-2.7,6-6,6s-6-2.7-6-6s2.7-10,6-10S30,29.7,30,33z" />
  <path fill="#bf360c" d="M24,23c-3.3,0-6,6.7-6,10c0,0.4,0,0.7,0.1,1.1C19,35.3,20.4,36,22,36c4,0,6-2.2,6-5 c0-3.9-0.8-6-1.9-7.1C25.4,23.3,24.7,23,24,23z" />
</svg>