<?xml version="1.0" encoding="utf-8"?>
<svg xmlns="http://www.w3.org/2000/svg" viewBox="0 0 48 48" width="18" height="18">
  <path fill="#43a047" d="M21.416,23.276C14.35,16.229,18,4.089,22,3.093S32.74,9.2,30.611,19.761 C28.797,28.764,23.551,25.405,21.416,23.276z" />
  <path fill="#66bb6a" d="M26.437,21.705c0-10,11.563-16.705,15-14c2.834,2.23,3,12-6,18 C27.766,30.819,26.437,24.726,26.437,21.705z" />
  <circle cx="17" cy="23" r="10" fill="#3949ab" />
  <circle cx="30" cy="29" r="10" fill="#5c6bc0" />
  <circle cx="15.5" cy="33.5" r="10.5" fill="#7986cb" />
  <path fill="#1a237e" d="M13.5,37C11.019,37,9,34.981,9,32.5s2.019-4.5,4.5-4.5s4.5,2.019,4.5,4.5S15.981,37,13.5,37z M13.5,30c-1.379,0-2.5,1.122-2.5,2.5s1.121,2.5,2.5,2.5s2.5-1.122,2.5-2.5S14.879,30,13.5,30z" />
  <path fill="#1a237e" d="M16.258,21.011c-2.254,0-4.067-1.285-4.237-3.088c-0.093-0.981,0.343-1.967,1.194-2.706 c0.771-0.667,1.82-1.094,2.957-1.201c2.505-0.236,4.624,1.107,4.808,3.062c0.093,0.981-0.343,1.967-1.194,2.706 c-0.771,0.667-1.82,1.094-2.957,1.201C16.636,21.002,16.445,21.011,16.258,21.011z M16.734,15.989 c-0.122,0-0.247,0.006-0.375,0.018c-0.715,0.067-1.383,0.33-1.834,0.721c-0.211,0.182-0.557,0.555-0.515,1.006 c0.067,0.707,1.167,1.399,2.63,1.259c0.715-0.067,1.383-0.33,1.834-0.721c0.211-0.182,0.557-0.555,0.515-1.006 C18.928,16.621,18.009,15.989,16.734,15.989z" />
  <path fill="#1a237e" d="M34.508,30.886c-0.504,0-1.02-0.105-1.524-0.316c-1.009-0.421-1.861-1.223-2.403-2.258 c-1.147-2.2-0.527-4.801,1.383-5.799c0.957-0.5,2.074-0.529,3.147-0.081c1.009,0.421,1.861,1.224,2.402,2.259 s0.712,2.194,0.481,3.262c-0.245,1.136-0.907,2.037-1.864,2.537C35.624,30.753,35.073,30.886,34.508,30.886z M33.589,24.117 c-0.25,0-0.486,0.056-0.7,0.167c-0.933,0.488-1.174,1.879-0.535,3.101c0.324,0.622,0.822,1.098,1.4,1.339 c0.515,0.216,1.029,0.212,1.449-0.008c0.422-0.22,0.719-0.641,0.836-1.186c0.132-0.612,0.025-1.292-0.3-1.914v0 c-0.324-0.622-0.821-1.098-1.4-1.339C34.085,24.17,33.831,24.117,33.589,24.117z" />
</svg>