<?xml version="1.0" encoding="utf-8"?>
<svg xmlns="http://www.w3.org/2000/svg" viewBox="0 0 48 48" width="18" height="18">
  <path fill="#FF1744" d="M41.4,29.5c-4.1-12.4-13.5-3.3-13.5-3.3s-1.3,0.1-2.8,0.6c-3.2-3.1-9.2-1.2-9.2-1.2s-11.1-3.7-9.8,8.7c0.6,5.3,4.7,8.7,10.4,8.7c2.9,0,5.4-0.9,7.2-2.4c3,2.7,7.4,3.2,11.8,1.2C40.9,39.4,43.1,34.6,41.4,29.5z" />
  <path fill="#D50000" d="M29.7,35.3c-0.4-3.9,2.7-11,5.3-12.3c-3.6-0.1-7.1,3.2-7.1,3.2s-1.2,0.1-2.7,0.6c-0.1-0.1-0.2-0.1-0.3-0.1c1.4,1.3,2.3,3.7,1.9,7.6c-0.3,2.6-1.4,4.7-3.1,6.2c0,0,0,0,0,0c1.5,1.4,5.1,4,11.8,1.3C32.4,41.2,30.1,39.2,29.7,35.3z" />
  <path fill="#FFCDD2" d="M10.1,34.9c-0.4,0-0.9-0.3-1-0.8c-1-4.1,1.4-5.8,2.4-6.4c0.5-0.3,1.1-0.1,1.3,0.4c0.3,0.5,0.1,1.1-0.4,1.3c-1,0.5-2,1.6-1.4,4.1c0.1,0.5-0.2,1.1-0.7,1.2C10.2,34.9,10.2,34.9,10.1,34.9z" />
  <path fill="#795548" d="M28.8,24.3c-0.1-0.3-0.2-0.5-0.3-0.8c0-0.1-0.1-0.2-0.1-0.3c-0.1-0.2-0.1-0.4-0.2-0.5c-0.1-0.2-0.1-0.3-0.2-0.5c-0.1-0.2-0.1-0.3-0.1-0.5c-0.1-0.2-0.1-0.4-0.2-0.5c-0.1-0.2-0.1-0.4-0.2-0.6c0-0.1-0.1-0.2-0.1-0.3c-0.1-0.2-0.1-0.4-0.1-0.6c0-0.1,0-0.2-0.1-0.3c0-0.2-0.1-0.4-0.1-0.6c0-0.1,0-0.2-0.1-0.3c0-0.2-0.1-0.4-0.1-0.6c0-0.1,0-0.2,0-0.2c0-0.2,0-0.4,0-0.6c0-0.1,0-0.2,0-0.3c0-0.2,0-0.4,0-0.6c0-0.1,0-0.1,0-0.2c0-0.2,0-0.4,0-0.6c0-0.1,0-0.2,0-0.2c0-0.2,0-0.3,0-0.5c0-0.1,0-0.2,0-0.3c0-0.1,0-0.3,0-0.4c0-0.1,0-0.2,0-0.3c0-0.1,0-0.2,0-0.3c0-0.1,0-0.2,0.1-0.4c0-0.1,0-0.1,0-0.2c0-0.1,0.1-0.3,0.1-0.4c0-0.1,0-0.1,0-0.2c0-0.2,0.1-0.3,0.1-0.5c0,0,0-0.1,0-0.1c0-0.2,0.1-0.3,0.1-0.5c0,0,0,0,0,0c0.6-2.1,1.6-3.5,2-4c0.1,0,0.2-0.1,0.2-0.1c0.5-0.2,0.7-0.8,0.5-1.3S29.5,4.8,29,5c0,0-0.1,0-0.1,0.1c-0.1,0-0.2,0-0.3,0.1c-0.1,0-0.1,0.1-0.2,0.2C14.5,11.7,15,26.9,15,27c0,0.5,0.5,1,1,1c0,0,0,0,0,0c0.6,0,1-0.5,1-1c0-0.1-0.4-11.7,9.2-18.2c-1.5,3.7-2.7,10.1,1.9,18.7c0.2,0.3,0.5,0.5,0.9,0.5c0.2,0,0.3,0,0.5-0.1c0.4-0.2,0.6-0.6,0.5-1c0-0.1-0.1-0.3-0.1-0.4c-0.2-0.4-0.4-0.8-0.6-1.1c0,0,0-0.1,0-0.1C29.1,25,28.9,24.6,28.8,24.3z" />
  <path fill="#4CAF50" d="M38,18c-1.8-1.9,2.9-13-9-13C22.2,18.2,38,18,38,18z" />
</svg>