<?xml version="1.0" encoding="utf-8"?>
<svg xmlns="http://www.w3.org/2000/svg" viewBox="0 0 48 48" width="18" height="18">
  <path fill="#6d4c41" d="M35.669,12.331C28.16,4.823,18.956,1.853,11.448,9.361S2.421,30.562,9.93,38.07 s21.2,5.991,28.709-1.518S43.177,19.84,35.669,12.331z" />
  <path fill="#cfd8dc" d="M34.62,13.38C30.625,9.385,25.605,7,21.192,7h-0.001c-2.466,0-4.534,0.765-5.98,2.211 c-4.13,4.13-2.221,13.019,4.17,19.409C23.375,32.615,28.396,35,32.81,35c2.466,0,4.534-0.764,5.98-2.211 C42.92,28.659,41.01,19.771,34.62,13.38z" />
  <path fill="#fafafa" d="M21.192,11c3.326,0,7.387,1.996,10.6,5.209c2.516,2.516,4.319,5.637,4.948,8.564 c0.496,2.307,0.212,4.198-0.778,5.189C35.102,30.82,33.773,31,32.81,31c-3.326,0-7.388-1.996-10.601-5.209 c-2.516-2.516-4.319-5.637-4.948-8.564c-0.496-2.307-0.212-4.198,0.778-5.189C18.898,11.18,20.227,11,21.191,11H21.192 M21.192,7 h-0.001c-2.466,0-4.534,0.765-5.98,2.211c-4.13,4.13-2.221,13.019,4.17,19.409C23.375,32.615,28.396,35,32.81,35 c2.466,0,4.534-0.764,5.98-2.211c4.13-4.13,2.221-13.019-4.17-19.409C30.625,9.385,25.605,7,21.192,7L21.192,7z" />
  <path fill="#8d6e63" d="M36.034,11.966C31.504,7.436,25.948,5,21.192,5v2c4.413,0,9.433,2.385,13.428,6.38 c6.391,6.391,8.3,15.279,4.17,19.409C37.343,34.236,35.276,35,32.81,35c-4.414,0-9.434-2.385-13.43-6.38 c-6.391-6.391-8.3-15.279-4.17-19.409C16.656,7.765,18.724,7,21.191,7l0.001-2c0,0-0.001,0-0.001,0c-2.9,0-5.504,0.906-7.394,2.796 c-4.989,4.989-3.123,14.946,4.17,22.238C22.496,34.564,28.053,37,32.81,37c2.9,0,5.504-0.906,7.394-2.796 C45.193,29.214,43.326,19.258,36.034,11.966z" />
  <path fill="#fafafa" d="M24.6,29.988L23,34c-0.8,2.859-3,6-3,6l7-4l2-5L24.6,29.988z" />
  <path fill="#5d4037" d="M20,40c0,0,4.693-0.685,7.56-3.893l0.212-2.029c-3.272,2.903-5.626,3.544-6.398,3.682L20,40z" />
  <path fill="#cfd8dc" d="M27.773,34.078l0.811-4.536L26,28.767l-2.22,3.278c0,0-1.642,4.219-2.405,5.715 C21.375,37.76,24.191,37.323,27.773,34.078z" />
  <path fill="#b0bec5" d="M27.773,34.078l0.718-4.017C27.083,31.271,24.167,33.208,23,34c-0.5,1.208-1.125,2.708-1.625,3.76 C21.375,37.76,24.191,37.323,27.773,34.078z" />
</svg>