<?xml version="1.0" encoding="utf-8"?>
<svg xmlns="http://www.w3.org/2000/svg" viewBox="0 0 48 48" width="18" height="18">
  <path fill="#e65100" d="M27.9,15.3l-1.9-0.6C26.2,14.3,29.4,5,38,5v2C30.8,7,28,15.2,27.9,15.3z" />
  <path fill="#e65100" d="M30,11.2l-2-0.4l1,0.2l-1-0.2c0.1-0.6,0.3-2.3-0.5-3.2C27.2,7.2,26.7,7,26,7c-0.8,0-1,0.6-1,1 c0,0.4,0.2,1,1,1v2c-2.2,0-3-1.8-3-3s0.8-3,3-3c1.7,0,2.6,0.7,3.1,1.3C30.5,8.1,30,10.9,30,11.2z" />
  <path fill="#9c27b0" d="M20,39c0,2.2-1.8,4-4,4s-4-1.8-4-4s1.8-4,4-4S20,36.8,20,39z" />
  <path fill="#9c27b0" d="M19,32c0,2.2-1.8,4-4,4s-4-1.8-4-4s1.8-4,4-4S19,29.8,19,32z" />
  <path fill="#9c27b0" d="M26 35c0 2.2-1.8 4-4 4s-4-1.8-4-4 1.8-4 4-4S26 32.8 26 35zM18 25c0 2.2-1.8 4-4 4s-4-1.8-4-4 1.8-4 4-4S18 22.8 18 25z" />
  <path fill="#9c27b0" d="M25,28c0,2.2-1.8,4-4,4s-4-1.8-4-4s1.8-4,4-4S25,25.8,25,28z" />
  <path fill="#9c27b0" d="M32 31c0 2.2-1.8 4-4 4s-4-1.8-4-4 1.8-4 4-4S32 28.8 32 31zM17 18c0 2.2-1.8 4-4 4s-4-1.8-4-4 1.8-4 4-4S17 15.8 17 18z" />
  <path fill="#9c27b0" d="M24,21c0,2.2-1.8,4-4,4s-4-1.8-4-4s1.8-4,4-4S24,18.8,24,21z" />
  <path fill="#9c27b0" d="M23 14c0 2.2-1.8 4-4 4s-4-1.8-4-4 1.8-4 4-4S23 11.8 23 14zM31 24c0 2.2-1.8 4-4 4s-4-1.8-4-4 1.8-4 4-4S31 21.8 31 24z" />
  <path fill="#9c27b0" d="M30 17c0 2.2-1.8 4-4 4s-4-1.8-4-4 1.8-4 4-4S30 14.8 30 17zM38 27c0 2.2-1.8 4-4 4s-4-1.8-4-4 1.8-4 4-4S38 24.8 38 27z" />
  <path fill="#9c27b0" d="M37 20c0 2.2-1.8 4-4 4s-4-1.8-4-4 1.8-4 4-4S37 17.8 37 20zM14.1 39.1c0-1.1.9-2 2-2" />
  <path fill="#ea80fc" d="M14.1,40.1c-0.6,0-1-0.4-1-1c0-1.7,1.3-3,3-3c0.6,0,1,0.4,1,1s-0.4,1-1,1c-0.6,0-1,0.4-1,1 C15.1,39.7,14.7,40.1,14.1,40.1z" />
  <path fill="#9c27b0" d="M13.1,32.1c0-1.1,0.9-2,2-2" />
  <path fill="#ea80fc" d="M13.1,33.1c-0.6,0-1-0.4-1-1c0-1.7,1.3-3,3-3c0.6,0,1,0.4,1,1s-0.4,1-1,1c-0.6,0-1,0.4-1,1 C14.1,32.7,13.7,33.1,13.1,33.1z" />
  <path fill="#9c27b0" d="M20.1,35.1c0-1.1,0.9-2,2-2" />
  <path fill="#ea80fc" d="M20.1,36.1c-0.6,0-1-0.4-1-1c0-1.7,1.3-3,3-3c0.6,0,1,0.4,1,1s-0.4,1-1,1c-0.6,0-1,0.4-1,1 C21.1,35.7,20.7,36.1,20.1,36.1z" />
  <path fill="#9c27b0" d="M12.1,25.1c0-1.1,0.9-2,2-2" />
  <path fill="#ea80fc" d="M12.1,26.1c-0.6,0-1-0.4-1-1c0-1.7,1.3-3,3-3c0.6,0,1,0.4,1,1s-0.4,1-1,1c-0.6,0-1,0.4-1,1 C13.1,25.7,12.7,26.1,12.1,26.1z" />
  <path fill="#9c27b0" d="M19.1,28.1c0-1.1,0.9-2,2-2" />
  <path fill="#ea80fc" d="M19.1,29.1c-0.6,0-1-0.4-1-1c0-1.7,1.3-3,3-3c0.6,0,1,0.4,1,1s-0.4,1-1,1c-0.6,0-1,0.4-1,1 C20.1,28.7,19.7,29.1,19.1,29.1z" />
  <path fill="#9c27b0" d="M26.1,31.1c0-1.1,0.9-2,2-2" />
  <path fill="#ea80fc" d="M26.1,32.1c-0.6,0-1-0.4-1-1c0-1.7,1.3-3,3-3c0.6,0,1,0.4,1,1s-0.4,1-1,1c-0.6,0-1,0.4-1,1 C27.1,31.7,26.7,32.1,26.1,32.1z" />
  <path fill="#9c27b0" d="M11.1,18.1c0-1.1,0.9-2,2-2" />
  <path fill="#ea80fc" d="M11.1,19.1c-0.6,0-1-0.4-1-1c0-1.7,1.3-3,3-3c0.6,0,1,0.4,1,1s-0.4,1-1,1c-0.6,0-1,0.4-1,1 C12.1,18.7,11.7,19.1,11.1,19.1z" />
  <path fill="#9c27b0" d="M18.1,21.1c0-1.1,0.9-2,2-2" />
  <path fill="#ea80fc" d="M18.1,22.1c-0.6,0-1-0.4-1-1c0-1.7,1.3-3,3-3c0.6,0,1,0.4,1,1s-0.4,1-1,1c-0.6,0-1,0.4-1,1 C19.1,21.7,18.7,22.1,18.1,22.1z" />
  <path fill="#9c27b0" d="M17.1,14.1c0-1.1,0.9-2,2-2" />
  <path fill="#ea80fc" d="M17.1,15.1c-0.6,0-1-0.4-1-1c0-1.7,1.3-3,3-3c0.6,0,1,0.4,1,1s-0.4,1-1,1c-0.6,0-1,0.4-1,1 C18.1,14.7,17.7,15.1,17.1,15.1z" />
  <path fill="#9c27b0" d="M25.1,24.1c0-1.1,0.9-2,2-2" />
  <path fill="#ea80fc" d="M25.1,25.1c-0.6,0-1-0.4-1-1c0-1.7,1.3-3,3-3c0.6,0,1,0.4,1,1s-0.4,1-1,1c-0.6,0-1,0.4-1,1 C26.1,24.7,25.7,25.1,25.1,25.1z" />
  <path fill="#9c27b0" d="M24.1,17.1c0-1.1,0.9-2,2-2" />
  <path fill="#ea80fc" d="M24.1,18.1c-0.6,0-1-0.4-1-1c0-1.7,1.3-3,3-3c0.6,0,1,0.4,1,1s-0.4,1-1,1c-0.6,0-1,0.4-1,1 C25.1,17.7,24.7,18.1,24.1,18.1z" />
  <path fill="#9c27b0" d="M32.1,27.1c0-1.1,0.9-2,2-2" />
  <path fill="#ea80fc" d="M32.1,28.1c-0.6,0-1-0.4-1-1c0-1.7,1.3-3,3-3c0.6,0,1,0.4,1,1c0,0.6-0.4,1-1,1c-0.6,0-1,0.4-1,1 C33.1,27.7,32.7,28.1,32.1,28.1z" />
  <path fill="#9c27b0" d="M31.1,20.1c0-1.1,0.9-2,2-2" />
  <path fill="#ea80fc" d="M31.1,21.1c-0.6,0-1-0.4-1-1c0-1.7,1.3-3,3-3c0.6,0,1,0.4,1,1s-0.4,1-1,1c-0.6,0-1,0.4-1,1 C32.1,20.7,31.7,21.1,31.1,21.1z" />
  <path fill="#6a1b9a" d="M18.3 35.7c.4.6.7 1.4.7 2.3 0 2.2-1.8 4-4 4-.9 0-1.6-.3-2.3-.7.7 1 1.9 1.7 3.3 1.7 2.2 0 4-1.8 4-4C20 37.6 19.3 36.4 18.3 35.7zM17.3 28.7c.4.6.7 1.4.7 2.3 0 2.2-1.8 4-4 4-.9 0-1.6-.3-2.3-.7.7 1 1.9 1.7 3.3 1.7 2.2 0 4-1.8 4-4C19 30.6 18.3 29.4 17.3 28.7zM16.3 21.7c.4.6.7 1.4.7 2.3 0 2.2-1.8 4-4 4-.9 0-1.6-.3-2.3-.7.7 1 1.9 1.7 3.3 1.7 2.2 0 4-1.8 4-4C18 23.6 17.3 22.4 16.3 21.7zM15.3 14.7c.4.6.7 1.4.7 2.3 0 2.2-1.8 4-4 4-.9 0-1.6-.3-2.3-.7.7 1 1.9 1.7 3.3 1.7 2.2 0 4-1.8 4-4C17 16.6 16.3 15.4 15.3 14.7z" />
  <path fill="#6a1b9a" d="M21.3 10.7c.4.6.7 1.4.7 2.3 0 2.2-1.8 4-4 4-.4 0-.8-.1-1.2-.2.1.2.1.4.1.6.6.4 1.3.6 2 .6 2.2 0 4-1.8 4-4C23 12.6 22.3 11.4 21.3 10.7zM28.3 13.7c.4.6.7 1.4.7 2.3 0 2.2-1.8 4-4 4-.4 0-.8-.1-1.2-.2.1.2.1.4.1.6.6.4 1.3.6 2 .6 2.2 0 4-1.8 4-4C30 15.6 29.3 14.4 28.3 13.7z" />
  <path fill="#6a1b9a" d="M22.3 17.7c.4.6.7 1.4.7 2.3 0 2.2-1.8 4-4 4-.4 0-.8-.1-1.2-.2.1.2.1.4.1.6.6.4 1.3.6 2 .6 2.2 0 4-1.8 4-4C24 19.6 23.3 18.4 22.3 17.7zM35.3 16.7c.4.6.7 1.4.7 2.3 0 2.2-1.8 4-4 4-.4 0-.8-.1-1.2-.2.1.2.1.4.1.6.6.4 1.3.6 2 .6 2.2 0 4-1.8 4-4C37 18.6 36.3 17.4 35.3 16.7zM36.3 23.7c.4.6.7 1.4.7 2.3 0 2.2-1.8 4-4 4-.4 0-.8-.1-1.2-.2.1.2.1.4.1.6.6.4 1.3.6 2 .6 2.2 0 4-1.8 4-4C38 25.6 37.3 24.4 36.3 23.7z" />
  <path fill="#6a1b9a" d="M29.3,20.7c0.4,0.6,0.7,1.4,0.7,2.3c0,2.2-1.8,4-4,4c-0.4,0-0.8-0.1-1.2-0.2 c0.1,0.2,0.1,0.4,0.1,0.6c0.6,0.4,1.3,0.6,2,0.6c2.2,0,4-1.8,4-4C31,22.6,30.3,21.4,29.3,20.7z" />
  <path fill="#6a1b9a" d="M23.3 24.7c.4.6.7 1.4.7 2.3 0 2.2-1.8 4-4 4-.4 0-.8-.1-1.2-.2.1.2.1.4.1.6.6.4 1.3.6 2 .6 2.2 0 4-1.8 4-4C25 26.6 24.3 25.4 23.3 24.7zM30.3 27.7c.4.6.7 1.4.7 2.3 0 2.2-1.8 4-4 4-.4 0-.8-.1-1.2-.2.1.2.1.4.1.6.6.4 1.3.6 2 .6 2.2 0 4-1.8 4-4C32 29.6 31.3 28.4 30.3 27.7z" />
  <path fill="#6a1b9a" d="M24.3,31.7c0.4,0.6,0.7,1.4,0.7,2.3c0,2.2-1.8,4-4,4c-0.4,0-0.8-0.1-1.2-0.2 c0.1,0.2,0.1,0.4,0.1,0.6c0.6,0.4,1.3,0.6,2,0.6c2.2,0,4-1.8,4-4C26,33.6,25.3,32.4,24.3,31.7z" />
</svg>