<?xml version="1.0" encoding="utf-8"?>
<svg xmlns="http://www.w3.org/2000/svg" width="18" height="18" viewBox="0 0 48 48">
  <path fill="#795548" d="M24 3A17 21 0 1 0 24 45A17 21 0 1 0 24 3Z" transform="rotate(45.001 24 24.001)" />
  <path fill="#8BC34A" d="M27.991,6.895L27.991,6.895c3.777,0,7.043,1.269,9.444,3.67c5.849,5.849,4.579,16.634-2.829,24.043c-4.13,4.13-9.45,6.498-14.596,6.498c-3.778,0-7.044-1.269-9.446-3.67C7.789,34.66,6.519,30.673,6.989,26.21c0.487-4.622,2.761-9.173,6.405-12.816C17.523,9.264,22.844,6.895,27.991,6.895" />
  <path fill="#689F38" d="M11.845,31.94c-0.509-0.989-0.127-2.191,0.855-2.693l0,0c0.99-0.51,5.603-1.275,5.603-1.275s-2.788,4.33-3.771,4.832l0,0c-0.792,0.409-1.732,0.232-2.326-0.361l0,0C12.057,32.294,11.938,32.131,11.845,31.94z M15.388,33.659c0.494-0.99,4.566-4.007,4.566-4.007s-0.501,4.834-1.003,5.816l0,0c-0.502,0.983-1.704,1.379-2.694,0.871l0,0c0,0,0,0,0.007,0.006l0,0c-0.197-0.099-0.367-0.227-0.509-0.367l0,0C15.154,35.377,14.984,34.443,15.388,33.659z M10.643,25.973c0.064-1.11,1.012-1.944,2.114-1.889l0,0c1.104,0.057,4.884,1.53,4.884,1.53s-4.007,2.529-5.117,2.466l0,0c-0.509-0.028-0.954-0.248-1.294-0.587l0,0C10.841,27.104,10.614,26.566,10.643,25.973z M20.118,35.646c-0.071-1.104,2.601-5.279,2.601-5.279s1.323,3.941,1.388,5.038l0,0c0.063,1.11-0.777,2.051-1.881,2.121l0,0c-0.594,0.028-1.146-0.198-1.534-0.587l0,0C20.358,36.607,20.146,36.154,20.118,35.646z M12.156,20.315c0.48-0.989,1.676-1.407,2.673-0.919l0,0c0.997,0.474,3.271,3.49,3.271,3.49s-4.021,0.582-5.018,0.108l0,0c-0.205-0.105-0.389-0.232-0.544-0.388l0,0C11.951,22.021,11.774,21.107,12.156,20.315z M25.202,35.087c-0.488-0.997,0.106-5.264,0.106-5.264s3.012,2.514,3.492,3.504l0,0c0.475,0.996,0.071,2.191-0.926,2.679l0,0c-0.785,0.375-1.704,0.205-2.291-0.381l0,0C25.429,35.469,25.301,35.285,25.202,35.087z M15.494,15.648c0.777-0.777,2.043-0.785,2.828,0l0,0c0.777,0.777,1.593,4.422,1.593,4.422s-3.637-0.809-4.421-1.593l0,0C14.716,17.699,14.709,16.434,15.494,15.648z M28.007,28.008c0,0,3.778,1.006,4.563,1.791l0,0c0.777,0.777,0.785,2.043,0,2.828l0,0c-0.007,0.007-0.014,0.014-0.021,0.021l0,0c0,0-0.008,0.008-0.015,0.015l0,0c-0.777,0.777-2.044,0.784-2.828,0l0,0C28.929,31.884,28.007,28.008,28.007,28.008z M19.227,14.984c-0.487-0.997-0.07-2.192,0.927-2.68l0,0l0,0l0,0c0.982-0.488,2.186-0.078,2.673,0.919l0,0c0.481,0.989-0.173,4.969-0.173,4.969S19.58,15.868,19.227,14.984z M34.975,25.287L34.975,25.287c0.989,0.48,1.414,1.668,0.926,2.666l0,0c-0.481,0.989-1.676,1.406-2.673,0.933l0,0c-1.052-0.511-3.378-3.642-3.378-3.642S33.978,24.799,34.975,25.287z M23.922,12.892c-0.07-1.104,0.764-2.051,1.867-2.121l0,0c0,0,0,0,0.007,0.007l0,0c1.103-0.071,2.051,0.764,2.114,1.874l0,0c0.063,1.095-2.321,4.987-2.321,4.987S23.95,13.4,23.922,12.892z M30.36,22.448c0,0,4.056-2.316,5.158-2.259l0,0c1.096,0.063,1.944,1.011,1.881,2.105l0,0c-0.057,1.104-1.053,1.808-2.1,1.889C34.253,24.266,30.36,22.448,30.36,22.448z M29.077,12.813c0.502-0.982,1.704-1.379,2.688-0.877l0,0c0.982,0.502,1.378,1.704,0.876,2.687l0,0c-0.494,0.99-4.618,3.5-4.618,3.5S28.674,13.612,29.077,12.813z M33.503,15.472L33.503,15.472c0.976-0.509,2.185-0.12,2.694,0.856l0,0l0,0l0,0c0.502,0.982,0.127,2.191-0.862,2.701l0,0c-0.792,0.409-5.791,0.76-5.791,0.76S32.514,15.98,33.503,15.472z" />
  <path fill="#5D4037" d="M30.296 30.332c.426-.425.426-1.059.035-1.449-.228-.221-1.219-.633-2.426-1.029.369 1.23.76 2.245.979 2.48C29.272 30.723 29.906 30.723 30.296 30.332zM21.617 33.669c.202.202.486.311.778.295.549-.034.964-.503.933-1.064-.025-.407-.323-1.521-.674-2.687-.723 1.271-1.295 2.442-1.317 2.831C21.351 33.277 21.447 33.499 21.617 33.669zM26.708 33.047c.486-.237.693-.844.454-1.346-.021-.043-.179-.327-.946-1.095-.274-.274-.572-.556-.859-.819-.109 1.355-.114 2.502.012 2.811.047.094.113.19.187.264C25.854 33.159 26.316 33.234 26.708 33.047zM32.651 25.316c-.3-.13-1.417-.159-2.742-.093.369.443.78.914 1.16 1.294.473.473.674.582.71.599.492.234 1.096.024 1.336-.47.186-.381.109-.836-.189-1.136C32.847 25.432 32.754 25.367 32.651 25.316zM20.144 29.43c-1.197.968-2.208 1.87-2.392 2.201-.2.389-.126.854.182 1.16.073.073.157.135.25.182l.001-.003c.239.122.51.145.764.063.255-.082.462-.26.584-.498C19.701 32.203 19.937 30.911 20.144 29.43zM32.346 19.465c.477-.245.669-.854.416-1.35-.044-.084-.104-.167-.177-.238-.308-.308-.786-.384-1.165-.187-.323.174-1.205 1.114-2.157 2.233C30.74 19.776 32.025 19.601 32.346 19.465zM32.768 23.287c.559-.043 1.144-.382 1.173-.942.017-.286-.09-.562-.292-.765-.175-.174-.405-.278-.648-.293-.37.012-1.542.521-2.814 1.168C31.361 22.932 32.424 23.295 32.768 23.287zM15.288 30.223c.303.303.779.377 1.16.18.327-.198 1.173-1.27 2.068-2.531-1.416.282-2.637.574-2.984.753-.235.12-.409.323-.49.573-.081.256-.058.53.067.773C15.16 30.074 15.214 30.148 15.288 30.223zM17.756 19.288c.227.216 1.176.578 2.325.912-.334-1.15-.697-2.101-.911-2.327-.39-.39-1.024-.389-1.414.001S17.366 18.897 17.756 19.288zM15.627 23.034c.278.111 1.363.103 2.648-.008-.347-.413-.732-.849-1.09-1.206-.484-.484-.678-.584-.698-.594-.25-.123-.521-.139-.773-.053-.252.088-.455.268-.571.507-.186.385-.109.847.189 1.147C15.407 22.902 15.506 22.971 15.627 23.034zM28.013 18.082c1.188-.807 2.196-1.582 2.392-1.906.195-.381.121-.846-.187-1.153-.074-.074-.161-.136-.256-.185-.488-.25-1.09-.051-1.342.441C28.486 15.563 28.246 16.73 28.013 18.082zM20.877 16.513l.017.033.014.034c.002.002.095.172.511.587.357.357.806.751 1.229 1.105.129-1.269.15-2.351.029-2.651-.046-.093-.11-.183-.188-.262-.303-.303-.76-.38-1.137-.191C20.845 15.415 20.635 16.017 20.877 16.513zM25.53 17.678c.63-1.172 1.122-2.245 1.137-2.611-.018-.299-.166-.51-.287-.632-.2-.2-.479-.305-.765-.286l-.13.008c-.219.041-.416.152-.564.321-.17.192-.257.438-.248.695C24.732 15.458 25.093 16.488 25.53 17.678zM15.247 24.848c-.555-.027-1.032.396-1.063.946-.014.28.091.553.295.757.182.182.398.282.642.295.373-.018 1.511-.564 2.744-1.253C16.737 25.202 15.65 24.868 15.247 24.848z" />
  <g>
    <path fill="#E6EE9C" d="M24 17A5.667 7 0 1 0 24 31A5.667 7 0 1 0 24 17Z" transform="rotate(45.001 24.001 24.003)" />
  </g>
</svg>