<?xml version="1.0" encoding="utf-8"?>
<svg xmlns="http://www.w3.org/2000/svg" viewBox="0 0 48 48" width="18" height="18">
  <path fill="#689f38" d="M20.447,38.898c-3.83,0.401-7.708-0.445-10.97-2.554l-0.254,0.253c-1.314,1.312-3.458,1.297-4.79-0.032s-1.346-3.47-0.032-4.781l0.254-0.253C0.33,24.865,1.309,15.621,7.447,9.494s15.399-7.105,22.076-2.786l0.254-0.253c1.314-1.312,3.458-1.297,4.79,0.032s1.346,3.47,0.032,4.781l-0.254,0.253c2.728,4.204,3.346,9.433,1.891,14.259" />
  <path fill="#8bc34a" d="M44,25c-10.544,0-21.088,0-31.632,0c0,9.389,7.081,17,15.816,17S44,34.389,44,25z" />
  <path fill="#dcedc8" d="M11.359,25.015c0,9.925,7.546,18,16.821,18S45,34.939,45,25.015H11.359z M26.353,40.875c-1.81-0.239-3.519-0.828-5.068-1.707c-0.488-0.277-0.658-0.903-0.355-1.378l6.508-10.223l0,12.367C27.437,40.516,26.924,40.951,26.353,40.875z M28.921,27.773l6.184,10.065c0.33,0.538,0.134,1.244-0.421,1.537c-1.428,0.754-2.983,1.267-4.623,1.491c-0.6,0.082-1.14-0.382-1.14-0.994V27.773z M24.695,26.015l-9.189,4.871C15,31.154,14.382,30.895,14.2,30.348c-0.34-1.023-0.589-2.093-0.729-3.199c-0.076-0.598,0.377-1.134,0.974-1.134L24.695,26.015z M16.068,32.282l9.965-5.283l-6.297,9.892c-0.293,0.46-0.924,0.527-1.319,0.154c-1.043-0.987-1.955-2.129-2.709-3.393C15.42,33.169,15.574,32.544,16.068,32.282z M36.281,36.909l-6.093-9.918l10.051,5.422c0.485,0.262,0.633,0.88,0.345,1.353c-0.763,1.253-1.685,2.381-2.735,3.356C37.375,37.563,36.621,37.462,36.281,36.909z M40.793,31.01l-9.262-4.996h10.481c0.547,0,0.955,0.489,0.889,1.038c-0.143,1.186-0.41,2.331-0.781,3.421C41.931,31.027,41.303,31.286,40.793,31.01z" />
  <circle cx="23" cy="7" r="1" fill="#7cb342" />
  <circle cx="17" cy="7" r="1" fill="#7cb342" />
  <circle cx="20" cy="10" r="1" fill="#7cb342" />
  <circle cx="14" cy="10" r="1" fill="#7cb342" />
  <circle cx="14" cy="16" r="1" fill="#7cb342" />
  <circle cx="26" cy="10" r="1" fill="#7cb342" />
  <circle cx="11" cy="19" r="1" fill="#7cb342" />
  <circle cx="5" cy="19" r="1" fill="#7cb342" />
  <circle cx="8" cy="22" r="1" fill="#7cb342" />
  <circle cx="8" cy="16" r="1" fill="#7cb342" />
  <circle cx="11" cy="13" r="1" fill="#7cb342" />
  <circle cx="23" cy="13" r="1" fill="#7cb342" />
  <circle cx="29" cy="13" r="1" fill="#7cb342" />
  <circle cx="17" cy="13" r="1" fill="#7cb342" />
  <circle cx="20" cy="16" r="1" fill="#7cb342" />
  <path fill="#558b2f" d="M28.148,44.973c-10.128,0-18.539-8.951-18.749-19.954l2-0.038c0.189,9.92,7.703,17.992,16.749,17.992c9.046,0,16.56-8.071,16.749-17.992l2,0.038C46.687,36.021,38.276,44.973,28.148,44.973z" />
</svg>