<?xml version="1.0" encoding="utf-8"?>
<svg xmlns="http://www.w3.org/2000/svg" viewBox="0 0 48 48" width="18" height="18">
  <rect width="2" height="5" x="23" y="40" fill="#b71c1c" />
  <path fill="#ffab91" d="M9,20.319C9,20.319,11.225,5,23.993,5S39,20.319,39,20.319" />
  <path fill="#b71c1c" d="M38.167,20c-4.812,0-9.624,0-14.437,0c-4.646,0-9.292,0-13.938,0c-0.117-0.001-0.75,0.008-1.268,0.546C8.201,20.883,8,21.348,8,21.862v2.043c0,5.603,2.423,9.103,4.569,11.198c3.15,3.075,6.963,3.61,8.431,3.733c0.585,1.148,1.729,1.881,2.981,1.909c1.302,0.028,2.516-0.713,3.126-1.907c1.217-0.085,5.358-0.53,8.793-3.963c4.793-4.791,4.062-11.417,4.062-12.157v-0.855C39.96,20.834,39.158,20,38.167,20z" />
  <circle cx="11" cy="23" r="1" fill="#e53935" />
  <circle cx="15" cy="23" r="1" fill="#e53935" />
  <circle cx="19" cy="23" r="1" fill="#e53935" />
  <circle cx="21" cy="26" r="1" fill="#e53935" />
  <circle cx="17" cy="26" r="1" fill="#e53935" />
  <circle cx="13" cy="26" r="1" fill="#e53935" />
  <circle cx="15" cy="29" r="1" fill="#e53935" />
  <circle cx="19" cy="29" r="1" fill="#e53935" />
  <circle cx="17" cy="32" r="1" fill="#e53935" />
  <circle cx="21" cy="32" r="1" fill="#e53935" />
  <circle cx="8.5" cy="24.5" r="1.5" fill="#b71c1c" />
  <circle cx="9.5" cy="29.5" r="1.5" fill="#b71c1c" />
  <circle cx="11.5" cy="33.5" r="1.5" fill="#b71c1c" />
  <circle cx="15.5" cy="36.5" r="1.5" fill="#b71c1c" />
  <circle cx="39.5" cy="24.5" r="1.5" fill="#b71c1c" />
  <circle cx="38.5" cy="29.5" r="1.5" fill="#b71c1c" />
  <circle cx="36.5" cy="33.5" r="1.5" fill="#b71c1c" />
  <circle cx="32.5" cy="36.5" r="1.5" fill="#b71c1c" />
  <circle cx="11" cy="29" r="1" fill="#e53935" />
  <circle cx="13" cy="32" r="1" fill="#e53935" />
  <circle cx="24" cy="23" r="1" fill="#e53935" />
  <circle cx="24" cy="29" r="1" fill="#e53935" />
  <circle cx="24" cy="35" r="1" fill="#e53935" />
  <circle cx="29" cy="23" r="1" fill="#e53935" />
  <circle cx="33" cy="23" r="1" fill="#e53935" />
  <circle cx="37" cy="23" r="1" fill="#e53935" />
  <circle cx="35" cy="26" r="1" fill="#e53935" />
  <circle cx="31" cy="26" r="1" fill="#e53935" />
  <circle cx="27" cy="26" r="1" fill="#e53935" />
  <circle cx="29" cy="29" r="1" fill="#e53935" />
  <circle cx="33" cy="29" r="1" fill="#e53935" />
  <circle cx="37" cy="29" r="1" fill="#e53935" />
  <circle cx="31" cy="32" r="1" fill="#e53935" />
  <circle cx="29" cy="35" r="1" fill="#e53935" />
  <circle cx="35" cy="32" r="1" fill="#e53935" />
  <circle cx="19" cy="35" r="1" fill="#e53935" />
  <circle cx="27" cy="32" r="1" fill="#e53935" />
</svg>