<?xml version="1.0" encoding="utf-8"?>
<svg xmlns="http://www.w3.org/2000/svg" viewBox="0 0 48 48" width="18" height="18">
  <path fill="#795548" d="M24.471,11.377h-2c0-5.398,3.199-8.602,3.301-8.699l1.398,1.398l-0.699-0.699l0.699,0.699 C27.17,4.076,24.471,6.877,24.471,11.377z" />
  <path fill="#795548" d="M24.471,11.377c0,0.602-0.398,1-1,1s-1-0.398-1-1c0-0.602,0.398-1,1-1S24.471,10.775,24.471,11.377z" />
  <path fill="#ffc400" d="M35.543,17.19c-0.078-0.284-0.159-0.572-0.266-0.847c-1.878-5.32-7.24-8.995-13.354-8.246 c-5.728,0.702-10.311,5.432-10.864,11.177c-0.242,2.52,0.272,4.897,1.334,6.947c0.764,1.475,1.444,2.996,1.808,4.618 c0.364,1.622,0.585,3.276,0.673,4.936c0.035,0.676,0.049,1.355,0.039,2.032c-0.054,3.824,3.081,7.131,7.122,7.163 c0.028,0,0.055,0,0.083,0c8.058,0,14.591-8.974,14.591-20.045C36.709,22.174,36.275,19.575,35.543,17.19z" />
  <path fill="#ffab00" d="M35.543,17.19c-0.078-0.284-0.159-0.573-0.266-0.847c-0.779-2.206-2.163-4.122-3.945-5.564 c0.48,0.768,0.887,1.586,1.194,2.454c0.107,0.275,0.188,0.563,0.266,0.847c0.733,2.385,1.166,4.984,1.166,7.736 c0,11.07-6.533,20.045-14.591,20.045c-0.028,0-0.055,0-0.083,0c-1.383-0.011-2.654-0.412-3.733-1.079 c1.107,2.417,3.553,4.166,6.485,4.189c0.028,0,0.055,0,0.083,0c8.058,0,14.591-8.974,14.591-20.045 C36.709,22.174,36.275,19.575,35.543,17.19z" />
</svg>