<?xml version="1.0" encoding="utf-8"?>
<svg xmlns="http://www.w3.org/2000/svg" viewBox="0 0 48 48" width="18" height="18">
  <path fill="#7cb342" d="M42,8.125c1.25,1.5,2,2.875,2,5.125c0,2.75-2,3.75-4,6.5c-1.719,2.363-4.358,7.297-5.25,9.75 c-1.5,4.125-3.5,7.25-5.625,9.375C27.004,40.996,24.125,43,17.75,43c-4.125,0-6.094-1.075-7.625-1.5 c-2.25-0.625-3.25-1.347-3.25-1.347L42,8.125z" />
  <path fill="#ffd54f" d="M36.104,5c-3.091,0-6.302,3.041-10.107,5.108c-2.276,1.237-8.884,4.638-12.842,6.698 C9.197,18.867,4,23.486,4,31.27c0,2.554,0.682,4.215,1.546,6.203c0.476,1.095,0.639,1.906,1.07,2.432 c0.384,0.47,0.754,0.471,1.902,0.636c0.315,0.045,1.656,0.269,2.14,0.308C11.547,40.92,12.779,41,13.144,41c0.004,0,0.008,0,0.011,0 c4.043,0,7.778-0.978,11.095-3.5c4.637-3.527,7.224-9.314,7.75-10.5c2.372-5.344,8.696-11.457,9.335-12.149 C42.22,13.894,43,12.662,43,11.081c0-1.824-0.357-2.311-1.546-3.527C40.141,6.211,38.957,5,36.104,5z" />
  <path fill="#424242" d="M13.069,31.992C13.005,31.728,13,31.536,13,31.27c0-3.502,2.344-5.457,4.31-6.48 c1.116-0.581,2.443-1.269,3.828-1.986C22.203,22.252,23.926,21.558,25,21c-0.197,0.385-1.125,1.875-1.125,1.875 c-2.249,5.1-4.436,6.588-5.229,7.191c-1.745,1.327-3.418,1.925-5.418,1.934C13.194,31.999,13.14,31.996,13.069,31.992L13.069,31.992 z" />
  <path fill="#424242" d="M14.5 30.75A1 1 0 1 0 14.5 32.75A1 1 0 1 0 14.5 30.75Z" />
  <path fill="#424242" d="M16 30.25A1 1 0 1 0 16 32.25A1 1 0 1 0 16 30.25Z" />
  <path fill="#424242" d="M17.5 29.625A1 1 0 1 0 17.5 31.625A1 1 0 1 0 17.5 29.625Z" />
  <path fill="#424242" d="M19 28.75A1 1 0 1 0 19 30.75A1 1 0 1 0 19 28.75Z" />
  <path fill="#424242" d="M20.375 27.625A1 1 0 1 0 20.375 29.625A1 1 0 1 0 20.375 27.625Z" />
  <path fill="#424242" d="M21.375 26.25A1 1 0 1 0 21.375 28.25A1 1 0 1 0 21.375 26.25Z" />
  <path fill="#424242" d="M22.5 24.875A1 1 0 1 0 22.5 26.875A1 1 0 1 0 22.5 24.875Z" />
  <path fill="#424242" d="M23.5 23.375A1 1 0 1 0 23.5 25.375A1 1 0 1 0 23.5 23.375Z" />
  <path fill="#424242" d="M24.25 21.75A1 1 0 1 0 24.25 23.75A1 1 0 1 0 24.25 21.75Z" />
  <path fill="#424242" d="M25 20A1 1 0 1 0 25 22A1 1 0 1 0 25 20Z" />
  <path fill="#424242" d="M23.25 20.625A1 1 0 1 0 23.25 22.625A1 1 0 1 0 23.25 20.625Z" />
  <path fill="#424242" d="M21.5 21.375A1 1 0 1 0 21.5 23.375A1 1 0 1 0 21.5 21.375Z" />
  <path fill="#424242" d="M19.875 22.125A1 1 0 1 0 19.875 24.125A1 1 0 1 0 19.875 22.125Z" />
  <path fill="#424242" d="M18.375 23A1 1 0 1 0 18.375 25A1 1 0 1 0 18.375 23Z" />
  <path fill="#424242" d="M16.875 24A1 1 0 1 0 16.875 26A1 1 0 1 0 16.875 24Z" />
  <path fill="#424242" d="M15.625 25A1 1 0 1 0 15.625 27A1 1 0 1 0 15.625 25Z" />
  <path fill="#424242" d="M14.5 26.25A1 1 0 1 0 14.5 28.25A1 1 0 1 0 14.5 26.25Z" />
  <path fill="#424242" d="M13.625 27.75A1 1 0 1 0 13.625 29.75A1 1 0 1 0 13.625 27.75Z" />
  <path fill="#424242" d="M13.125 29.375A1 1 0 1 0 13.125 31.375A1 1 0 1 0 13.125 29.375Z" />
  <path fill="#424242" d="M13 31A1 1 0 1 0 13 33A1 1 0 1 0 13 31Z" />
  <path fill="#ffab40" d="M34.983,13.371c-1.392,1.15-2.683,2.426-3.804,3.843c-2.117,2.675-3.679,5.134-4.664,7.353 c-0.74,1.667-2.796,5.799-5.898,8.158C18.577,34.277,16.202,35,13.183,35c-0.183-0.004-1.073-0.055-2.019-0.13 c-0.039-0.004-0.105-0.012-0.219-0.028C10.234,33.194,10,32.502,10,31.27c0-5.271,3.712-7.99,5.925-9.141 c1.117-0.581,2.446-1.27,3.833-1.989c2.22-1.151,4.63-2.399,6.52-3.39c1.071-0.561,2.988-1.596,3.217-1.729 c0.795-0.462,1.549-0.991,2.258-1.576l5.958-4.922c0.494-0.408,0.34-1.232-0.283-1.385C37.054,7.047,36.624,7,36.104,7 c-1.52,0-3.489,1.293-5.574,2.661c-1.133,0.744-2.305,1.513-3.577,2.204c-1.649,0.896-5.575,2.93-9.038,4.725 c-1.385,0.718-2.716,1.408-3.835,1.99C11.65,19.845,6,23.612,6,31.27c0,2.122,0.524,3.436,1.38,5.406 c0.194,0.447,0.337,0.836,0.462,1.179c0.074,0.203,0.16,0.438,0.232,0.604c0.115,0.018,0.25,0.036,0.378,0.054l0.351,0.049 c0.085,0.012,0.241,0.037,0.435,0.067c0.42,0.066,1.295,0.204,1.579,0.226C11.842,38.937,12.91,39,13.144,39 c3.927,0,7.16-1.011,9.895-3.092c3.703-2.816,6.058-7.298,7.133-9.719c1.507-3.396,4.657-7.552,9.362-12.352 c0.159-0.162,0.274-0.279,0.333-0.343C40.64,12.657,41,11.89,41,11.081c0-0.749-0.013-1.015-0.3-1.393 c-0.267-0.353-0.786-0.391-1.128-0.109L34.983,13.371z" />
</svg>