<?xml version="1.0" encoding="utf-8"?>
<svg xmlns="http://www.w3.org/2000/svg" viewBox="0 0 48 48" width="18" height="18">
  <path fill="#ff5252" d="M22,34c-0.1-0.2-2-4.1-2-9c0-7.2,5.3-11.3,8.8-13.6C27.9,11.2,23,10,19.1,10C12.7,10,6,15.6,6,24.9 c0,7.1,3.3,12.2,9.9,15.3c1.2,0.6,6.7,2.3,8.1,2.8C23.9,39.8,22.2,34.3,22,34z" />
  <path fill="#4caf50" d="M26,12.1c0,0-2.1-11.4-18-7.1C15,19,26,12.1,26,12.1z" />
  <path fill="#2e7d32" d="M24.3,12.7c-1.8-2.4-4.4-4.2-7.2-5.4c-1.4-0.6-2.9-1.1-4.4-1.5C11.1,5.4,9.6,5.1,8,5 c1.6-0.1,3.2,0.1,4.7,0.3c1.6,0.2,3.1,0.6,4.7,1.1c1.5,0.5,3,1.1,4.4,2c1.4,0.8,2.8,1.9,3.9,3.1L24.3,12.7z" />
  <path fill="#795548" d="M26,12c-0.6,0-1-0.4-1-1c0-2.4-2.5-4.2-2.6-4.2c-0.5-0.3-0.6-0.9-0.3-1.4c0.3-0.5,0.9-0.6,1.4-0.3 C23.7,5.3,27,7.5,27,11C27,11.6,26.6,12,26,12z" />
  <path fill="#ff9e80" d="M29.1,10c-0.2,0-0.5,0-0.7,0c-4,0.4-11.4,4-11.4,15c0,13.3,7.2,19,8,19c0.3,0,0.5-0.2,0.6-0.5 c0.4-0.8,1.5-1.2,3.1-1.9c1-0.4,2.1-0.9,3.4-1.5C39.3,36.4,42,31,42,24.1C42,15.7,36.8,10,29.1,10z" />
  <path fill="#e53935" d="M19.7,37.7c-0.1-0.2-0.2-0.3-0.2-0.5c-0.1-0.3-0.2-0.5-0.4-0.8c-0.1-0.2-0.2-0.4-0.3-0.6 c-0.1-0.3-0.2-0.5-0.3-0.8c-0.1-0.3-0.2-0.5-0.3-0.8c-0.1-0.3-0.2-0.6-0.2-0.8c-0.1-0.3-0.2-0.6-0.2-1c-0.1-0.3-0.1-0.6-0.2-0.8 c-0.1-0.4-0.1-0.8-0.2-1.1c0-0.3-0.1-0.5-0.1-0.8c-0.1-0.5-0.1-0.9-0.1-1.4c0-0.2-0.1-0.5-0.1-0.7C17,26.6,17,25.8,17,25 c0-0.6,0-1.2,0.1-1.8c0-0.1,0-0.3,0-0.4c0.1-0.5,0.1-1,0.2-1.5c0-0.1,0-0.2,0.1-0.3c0.1-0.4,0.2-0.8,0.3-1.1c0-0.1,0.1-0.3,0.1-0.4 c0.1-0.4,0.3-0.8,0.4-1.2c0.1-0.2,0.1-0.3,0.2-0.5c0.1-0.3,0.2-0.5,0.4-0.8c0.1-0.2,0.3-0.5,0.4-0.7c0.1-0.2,0.2-0.4,0.3-0.5 c0.1-0.2,0.2-0.4,0.4-0.5c0.1-0.1,0.2-0.3,0.3-0.4c0.3-0.4,0.7-0.8,1-1.2c-0.4,0.1-0.9,0.1-1.4,0.1c-0.5,0-1.1,0-1.6-0.1 c-1.6-0.2-3.2-0.8-4.8-2.1c-0.9,0.5-1.7,1.1-2.5,1.9c1.9,1.6,3.9,2.5,5.8,3C15.6,18.6,15,21.3,15,25c0,6.9,4.7,13.2,5.2,13.6 c0,0,0,0,0-0.1C20,38.2,19.9,38,19.7,37.7z" />
</svg>