<?xml version="1.0" encoding="utf-8"?>
<svg xmlns="http://www.w3.org/2000/svg" viewBox="0 0 48 48" width="18" height="18">
  <path fill="#ffc400" d="M38,33.5C38,27.1,31.7,22,24,22s-14,5.1-14,11.5S16.3,45,24,45S38,39.9,38,33.5z" />
  <path fill="#ffc400" d="M38,34c0-8-6-10-7-16c-0.6-3.8-3.1-7-7-7s-6.4,3.2-7,7c-1,6-7,8-7,16" />
  <path fill="#fff" d="M27,5c0,0-3,3-3,8" />
  <path fill="#795548" d="M25,13h-2c0-5.4,3.2-8.6,3.3-8.7l1.4,1.4L27,5l0.7,0.7C27.7,5.7,25,8.5,25,13z" />
  <path fill="#795548" d="M25,13c0,0.6-0.4,1-1,1s-1-0.4-1-1s0.4-1,1-1S25,12.4,25,13z" />
  <path fill="#4caf50" d="M24,14c0,0-1.3-12.5-14-8C11.4,19,24,14,24,14z" />
  <path fill="#ffab00" d="M37.8,31.5c-1.1-6-5.9-8.2-6.8-13.5c-0.5-3.1-2.2-5.8-4.9-6.7C28.2,12.8,29,18.5,29,22c0,4,4,6,4,10 s-4,9-10,9c-11.1,0-12.8-6.9-13-7.9c0,0.1,0,0.2,0,0.4c0,0.1,0,0.1,0,0.2c0,0.1,0,0.2,0,0.3h0c0.3,6.1,6.4,11,14,11s13.6-4.9,14-11 h0c0-0.1,0-0.2,0-0.3c0-0.1,0-0.1,0-0.2C38,32.8,37.9,32.2,37.8,31.5z" />
  <path fill="#ff9100" d="M31 32c0 .6-.4 1-1 1s-1-.4-1-1 .4-1 1-1S31 31.4 31 32zM27 32c0 .6-.4 1-1 1s-1-.4-1-1 .4-1 1-1S27 31.4 27 32zM29 35c0 .6-.4 1-1 1s-1-.4-1-1 .4-1 1-1S29 34.4 29 35z" />
</svg>