<?xml version="1.0" encoding="utf-8"?>
<svg xmlns="http://www.w3.org/2000/svg" width="18" height="18" viewBox="0 0 48 48">
  <path fill="#8BC34A" d="M29.201,18.041c0.243-1.729,0.844-3.107,1.551-4.381c0.721-1.261,1.582-2.383,2.563-3.389c0.98-1.006,2.086-1.89,3.331-2.637C37.904,6.9,39.272,6.274,41,6c-0.239,1.732-0.838,3.113-1.546,4.386c-0.722,1.26-1.582,2.384-2.568,3.384c-0.985,1.002-2.091,1.886-3.336,2.633C32.291,17.135,30.924,17.763,29.201,18.041z" />
  <path fill="#7CB342" d="M43,13c-1.07,1.387-2.279,2.295-3.529,3.059c-1.256,0.744-2.566,1.301-3.924,1.696c-1.356,0.396-2.762,0.624-4.221,0.664c-1.465,0.022-2.973-0.104-4.619-0.712c1.068-1.394,2.276-2.303,3.527-3.065c1.257-0.744,2.566-1.301,3.926-1.689c1.358-0.39,2.764-0.617,4.223-0.657C39.848,12.273,41.354,12.397,43,13z" />
  <path fill="#7CB342" d="M29.536,20.535c-0.628-1.648-0.774-3.166-0.775-4.645c0.018-1.474,0.226-2.896,0.595-4.274c0.368-1.379,0.905-2.712,1.631-3.995C31.729,6.344,32.622,5.106,34,4c0.634,1.649,0.782,3.168,0.782,4.646c-0.019,1.473-0.226,2.896-0.602,4.272c-0.374,1.377-0.911,2.711-1.638,3.993C31.798,18.189,30.908,19.428,29.536,20.535z" />
  <path fill="#558B2F" d="M43,19c-1.478,0.951-2.926,1.403-4.365,1.706c-1.438,0.283-2.864,0.37-4.281,0.29c-1.417-0.08-2.823-0.333-4.219-0.783c-1.395-0.467-2.779-1.088-4.135-2.212c1.478-0.957,2.926-1.412,4.365-1.712c1.438-0.283,2.865-0.37,4.281-0.283c1.417,0.086,2.823,0.34,4.219,0.789C40.259,17.264,41.645,17.883,43,19z" />
  <path fill="#558B2F" d="M29,4.001c0.95,1.398,1.402,2.765,1.705,4.122c0.283,1.356,0.37,2.7,0.289,4.034c-0.079,1.333-0.333,2.656-0.782,3.967c-0.468,1.31-1.089,2.609-2.212,3.877c-0.957-1.398-1.411-2.765-1.712-4.123c-0.282-1.356-0.37-2.7-0.282-4.033c0.086-1.333,0.34-2.656,0.789-3.966C27.264,6.569,27.883,5.27,29,4.001z" />
  <path fill="#F9A825" d="M29.313,34.717c2.384-2.384,3.714-5.82,3.75-9.313c0.019-1.813-1.305-5.563-2.833-7.154c-0.68-0.68-0.71-0.71-0.71-0.71l-0.894-0.894c0,0-2.418-2.619-6.751-2.619c-3.569,0-7.107,1.292-9.533,3.72c-0.162,0.162-3.458,3.457-3.622,3.621c-4.8,4.8-4.893,12.491-0.207,17.178c4.687,4.686,12.378,4.593,17.178-0.207C25.794,38.235,29.211,34.819,29.313,34.717z" />
  <path fill="#C68632" d="M22.076,40.848c0.002,0,0.003,0,0.004,0c0.962-0.446,1.886-1.009,2.734-1.716c-0.898-0.184-1.79-0.267-2.445-0.299c-0.058-1.155-0.261-3.047-0.931-4.419c1.581,0.066,3.622,0.396,4.287,1.063c0.364,0.363,0.625,1.142,0.8,2.028c0.495-0.495,1.127-1.127,1.665-1.665c-0.092-0.275-0.198-0.539-0.319-0.788c0.328,0.015,0.677,0.042,1.027,0.08c0.236-0.236,0.395-0.395,0.415-0.415c0.433-0.434,0.829-0.902,1.191-1.4c-0.863-0.169-1.712-0.247-2.34-0.278c-0.059-1.155-0.262-3.047-0.932-4.419c1.582,0.067,3.621,0.396,4.287,1.062c0.196,0.197,0.359,0.52,0.498,0.906c1.047-2.556,1.328-5.479,0.728-8.249c-0.745-2.525-3.226-4.798-3.226-4.798c0.523,0.523,0.836,1.9,0.979,3.234c-1.241-0.412-2.671-0.557-3.612-0.603c-0.046-0.941-0.19-2.372-0.603-3.612c1.334,0.144,2.711,0.456,3.235,0.98c0,0-1.936-2.561-4.72-3.177c-2.786-0.616-5.731-0.354-8.307,0.684c0.377,0.138,0.691,0.3,0.884,0.491c0.666,0.666,0.996,2.707,1.063,4.288c-1.371-0.669-3.264-0.873-4.418-0.931c-0.032-0.629-0.11-1.476-0.279-2.338c-0.498,0.36-0.968,0.756-1.4,1.189c-0.032,0.031-0.188,0.188-0.415,0.414c0.038,0.351,0.065,0.699,0.079,1.027c-0.247-0.121-0.512-0.228-0.787-0.319c-0.539,0.539-1.17,1.17-1.665,1.665c0.887,0.175,1.665,0.436,2.029,0.8c0.665,0.666,0.995,2.706,1.062,4.287c-1.372-0.67-3.264-0.873-4.419-0.931c-0.032-0.655-0.115-1.547-0.3-2.445c-0.705,0.85-1.27,1.771-1.715,2.734c0,0.001,0,0.002,0,0.003l0,0c-0.293,0.631-0.529,1.279-0.709,1.939c0.106,0.065,0.212,0.132,0.286,0.206c0.666,0.666,0.995,2.706,1.062,4.287c-0.533-0.259-1.145-0.444-1.761-0.582c0.042,0.739,0.152,1.473,0.33,2.193c0.434,0.147,0.794,0.323,1.007,0.535c0.593,0.593,0.918,2.271,1.029,3.75c0.324,0.427,0.669,0.845,1.058,1.234c0.39,0.389,0.808,0.733,1.234,1.058c1.479,0.111,3.157,0.437,3.75,1.029c0.213,0.213,0.388,0.573,0.536,1.007c0.72,0.178,1.453,0.288,2.192,0.33c-0.138-0.616-0.323-1.228-0.582-1.761c1.581,0.066,3.621,0.396,4.287,1.062c0.074,0.074,0.141,0.18,0.206,0.286c0.66-0.18,1.309-0.416,1.94-0.708C22.077,40.848,22.077,40.848,22.076,40.848z M26.149,33.335c-1.371-0.67-3.263-0.877-4.418-0.936c-0.059-1.155-0.266-3.047-0.937-4.418c1.583,0.065,3.627,0.395,4.293,1.062C25.754,29.709,26.084,31.752,26.149,33.335z M19.717,32.697c-1.372-0.671-3.263-0.878-4.419-0.936c-0.058-1.156-0.265-3.047-0.936-4.419c1.582,0.066,3.626,0.396,4.292,1.063C19.321,29.071,19.65,31.114,19.717,32.697z M30.883,23.248c0.665,0.666,0.995,2.706,1.062,4.287c-1.372-0.67-3.264-0.872-4.418-0.931c-0.058-1.154-0.262-3.046-0.931-4.418C28.177,22.253,30.217,22.582,30.883,23.248z M25.511,26.902c-1.371-0.671-3.262-0.878-4.417-0.937c-0.059-1.155-0.267-3.045-0.937-4.417c1.583,0.065,3.626,0.396,4.292,1.062S25.445,25.319,25.511,26.902z M19.519,15.115c1.582,0.065,3.625,0.396,4.292,1.061c0.001,0.001,0.001,0.001,0.002,0.002c0.665,0.667,0.995,2.71,1.061,4.292c-1.371-0.671-3.262-0.877-4.418-0.937C20.397,18.378,20.189,16.487,19.519,15.115z M13.729,20.911c1.582,0.065,3.623,0.395,4.288,1.061c0.666,0.666,0.995,2.706,1.062,4.287c-1.371-0.67-3.264-0.872-4.418-0.931C14.602,24.174,14.399,22.281,13.729,20.911z M7.935,26.705c1.582,0.065,3.622,0.396,4.288,1.062c0.665,0.666,0.995,2.705,1.061,4.288c-1.371-0.671-3.264-0.874-4.417-0.932C8.808,29.969,8.604,28.076,7.935,26.705z M9.504,37.556c-0.059-1.156-0.266-3.046-0.937-4.418c1.583,0.066,3.626,0.396,4.293,1.062c0.666,0.667,0.996,2.71,1.062,4.294C12.55,37.821,10.66,37.614,9.504,37.556z M15.937,38.193c-0.059-1.155-0.265-3.046-0.937-4.417c1.583,0.065,3.627,0.395,4.293,1.061c0.667,0.668,0.996,2.71,1.062,4.294C18.983,38.459,17.093,38.253,15.937,38.193z" />
</svg>