<?xml version="1.0" encoding="utf-8"?>
<svg xmlns="http://www.w3.org/2000/svg" width="18" height="18" viewBox="0 0 48 48">
  <path fill="#FF5252" d="M26,9l-2-5l-2,5c0,0,0-1-4-3l1,6l5,1l5-1l1-6C26,8,26,9,26,9z" />
  <path fill="#FFECB3" d="M24 12A17.849 15.5 0 1 0 24 43A17.849 15.5 0 1 0 24 12Z" />
  <path fill="#FF1744" d="M23.5 18.93c0-.83-.67-1.5-1.5-1.5-.03 0-.05 0-.08 0 .06-.2.07-.43.03-.65-.15-.82-.93-1.36-1.74-1.22-.02.01-.03.01-.05.01-.8.15-1.33.9-1.21 1.7-.35-.73-1.22-1.05-1.96-.72-.75.33-1.09 1.19-.78 1.94-.52-.62-1.44-.72-2.08-.22-.65.51-.76 1.43-.27 2.08-.67-.47-1.59-.33-2.08.33-.49.66-.35 1.59.29 2.08-.77-.27-1.62.14-1.9.91-.28.77.12 1.62.88 1.91-.81-.021-1.5.62-1.54 1.439-.03.82.59 1.511 1.4 1.561-.79.2-1.28 1.01-1.08 1.81.2.8 1 1.29 1.8 1.101-.7.43-.92 1.34-.5 2.05.42.7 1.33.93 2.03.529-.54.601-.5 1.53.09 2.091.59.56 1.52.54 2.09-.03-.36.72-.09 1.6.62 1.99.71.399 1.61.149 2.01-.551-.18.78.29 1.58 1.07 1.79.13.04.26.051.39.051.67 0 1.27-.44 1.45-1.11.03-.12.05-.24.05-.36.13.101.27.181.43.23.79.27 1.64-.15 1.91-.93.27-.79-.15-1.641-.94-1.9-.05-.021-.11-.04-.16-.05.75-.08 1.33-.721 1.33-1.49 0-.76-.57-1.39-1.3-1.49.73-.09 1.3-.72 1.3-1.479 0-.761-.56-1.391-1.29-1.49.73-.1 1.29-.73 1.29-1.49s-.57-1.38-1.3-1.479c.73-.101 1.3-.73 1.3-1.49 0-.76-.57-1.39-1.31-1.48.74-.1 1.31-.73 1.31-1.49 0-.76-.57-1.39-1.31-1.49C22.93 20.33 23.5 19.7 23.5 18.93zM37.09 28.58c.81-.061 1.43-.75 1.4-1.561-.04-.83-.73-1.47-1.551-1.439.771-.28 1.17-1.14.891-1.91-.28-.77-1.13-1.18-1.9-.91.64-.5.771-1.42.29-2.08-.49-.66-1.41-.8-2.07-.34.48-.65.36-1.56-.279-2.07-.641-.5-1.561-.4-2.08.22.31-.74-.03-1.61-.78-1.94-.74-.33-1.61-.01-1.96.72.12-.8-.41-1.55-1.21-1.7-.01 0-.01 0-.021 0-.01 0-.02 0-.039-.01-.811-.14-1.591.4-1.73 1.22-.04.23-.03.45.03.66-.03-.01-.05-.01-.08-.01-.83 0-1.5.67-1.5 1.5 0 .77.569 1.4 1.31 1.49-.74.1-1.31.72-1.31 1.49 0 .76.569 1.39 1.31 1.49-.74.09-1.31.72-1.31 1.48 0 .76.56 1.39 1.3 1.49-.74.1-1.3.72-1.3 1.479s.56 1.391 1.29 1.49c-.73.1-1.29.729-1.29 1.49 0 .76.56 1.39 1.3 1.479-.74.101-1.3.73-1.3 1.49 0 .77.58 1.41 1.33 1.49-.05.01-.11.029-.16.05-.79.26-1.21 1.12-.94 1.9.27.779 1.12 1.199 1.91.939.16-.06.3-.14.43-.24 0 .12.021.24.051.36.18.67.779 1.11 1.439 1.11.13 0 .26-.021.391-.051.79-.21 1.26-1 1.08-1.79.409.7 1.3.95 2.01.551.71-.391.979-1.28.609-2 .57.58 1.5.6 2.101.04.59-.561.63-1.5.08-2.101.71.41 1.609.181 2.029-.52.431-.71.2-1.62-.489-2.05.79.189 1.6-.301 1.8-1.101S37.88 28.78 37.09 28.58z" />
  <g>
    <path fill="#D50000" d="M18 6l1 6 2 1C21.065 11.438 18 6 18 6zM30 6c0 0-3.065 5.438-3 7l2-1L30 6z" />
    <path fill="#D50000" d="M27.559,11.325L27,13v0.24c7.945,1.214,14,7.139,14,14.26c0,6.82-5.543,12.585-12.999,14.095C26,42,23.917,39.87,23.917,39.87S22,42,19.999,41.595C12.543,40.085,7,34.32,7,27.5c0-7.121,6.055-13.046,14-14.26V13l-0.814-1.629C11.526,12.907,5,19.525,5,27.5C5,36.613,13.507,44,24,44s19-7.387,19-16.5C43,19.447,36.345,12.775,27.559,11.325z" />
    <path fill="#D50000" d="M22 11A1 1 0 1 0 22 13A1 1 0 1 0 22 11Z" />
    <path fill="#D50000" d="M24 11A1 1 0 1 0 24 13A1 1 0 1 0 24 11Z" />
    <path fill="#D50000" d="M26 11A1 1 0 1 0 26 13 1 1 0 1 0 26 11zM23 9A1 1 0 1 0 23 11 1 1 0 1 0 23 9z" />
    <path fill="#D50000" d="M25 9A1 1 0 1 0 25 11 1 1 0 1 0 25 9zM18.5 20A1.5 1.5 0 1 0 18.5 23 1.5 1.5 0 1 0 18.5 20zM14.5 23A1.5 1.5 0 1 0 14.5 26 1.5 1.5 0 1 0 14.5 23zM18.5 26A1.5 1.5 0 1 0 18.5 29 1.5 1.5 0 1 0 18.5 26zM18.5 32A1.5 1.5 0 1 0 18.5 35 1.5 1.5 0 1 0 18.5 32zM14.5 29A1.5 1.5 0 1 0 14.5 32 1.5 1.5 0 1 0 14.5 29zM29.5 20A1.5 1.5 0 1 0 29.5 23 1.5 1.5 0 1 0 29.5 20zM33.5 23A1.5 1.5 0 1 0 33.5 26 1.5 1.5 0 1 0 33.5 23zM29.5 26A1.5 1.5 0 1 0 29.5 29 1.5 1.5 0 1 0 29.5 26zM29.5 32A1.5 1.5 0 1 0 29.5 35 1.5 1.5 0 1 0 29.5 32zM33.5 29A1.5 1.5 0 1 0 33.5 32 1.5 1.5 0 1 0 33.5 29z" />
  </g>
</svg>