<?xml version="1.0" encoding="utf-8"?>
<svg xmlns="http://www.w3.org/2000/svg" viewBox="0 0 48 48" width="18" height="18">
  <path fill="#388E3C" d="M28,15c0,0-0.5-1,1-2c4.9-2.8,8.6-0.5,11-3c-0.2,3.8-2,5-2,5H28z M25,15.7C22.4,7.4,28.2,4,28.5,3.9L28,3l0.5,0.9l-1-1.8c-0.1,0-7.5,4.3-4.5,14.2L25,15.7z M17,15v-1c-0.8-5.5-5.4-1.9-10-4c0.6,2.7,3,5,3,5H17z" />
  <path fill="#4CAF50" d="M32,16h-7c-0.3-1-0.5-2.3-0.6-3.2c1.3-2,5.5-1.7,8.6-6.8C35.4,11.5,32,16,32,16z M23,16c0,0,0.4,0.7,0-2c-0.8-5.6-5.6-3.5-8-10c-4.9,7.9,1,12,1,12H23z" />
  <path fill="#FF4081" d="M15 28A5 5 0 1 0 15 38A5 5 0 1 0 15 28Z" />
  <path fill="#FF4081" d="M24 29A5 5 0 1 0 24 39A5 5 0 1 0 24 29Z" />
  <path fill="#FF4081" d="M33 28A5 5 0 1 0 33 38A5 5 0 1 0 33 28Z" />
  <path fill="#FF4081" d="M28 22A5 5 0 1 0 28 32A5 5 0 1 0 28 22Z" />
  <path fill="#FF4081" d="M36 21A5 5 0 1 0 36 31 5 5 0 1 0 36 21zM12 21A5 5 0 1 0 12 31 5 5 0 1 0 12 21z" />
  <path fill="#FF4081" d="M20 22A5 5 0 1 0 20 32 5 5 0 1 0 20 22zM11 14A5 5 0 1 0 11 24 5 5 0 1 0 11 14zM37 14A5 5 0 1 0 37 24 5 5 0 1 0 37 14z" />
  <path fill="#FF4081" d="M17 14A5 5 0 1 0 17 24 5 5 0 1 0 17 14zM31 14A5 5 0 1 0 31 24 5 5 0 1 0 31 14z" />
  <path fill="#FF4081" d="M24 14A5 5 0 1 0 24 24 5 5 0 1 0 24 14zM24 36A5 5 0 1 0 24 46 5 5 0 1 0 24 36z" />
  <path fill="#FF4081" d="M29 33A5 5 0 1 0 29 43A5 5 0 1 0 29 33Z" />
  <path fill="#FF4081" d="M19 33A5 5 0 1 0 19 43A5 5 0 1 0 19 33Z" />
  <path fill="#C51162" d="M24,38C24,38,24,38,24,38c-0.2-0.1-0.3-0.1-0.4-0.1C23.7,38,23.9,38,24,38z" />
  <path fill="#C51162" d="M42,19c0-2.8-2.2-5-5-5c1.7,0,3,3.3,3,5s-1.3,3-3,3c-0.6,0-1.2-0.2-1.7-0.5c0.4-0.7,0.7-1.6,0.7-2.5c0-1.2-0.4-2.3-1.1-3.1c0.5-1,1.3-1.9,2.1-1.9c-1.1,0-2.2,0.4-3,1c-0.8-0.6-1.9-1-3-1c1.7,0,3,3.3,3,5s-1.3,3-3,3c-1,0-1.8-0.5-2.4-1.2c0.2-0.6,0.4-1.2,0.4-1.8c0-0.8-0.2-1.5-0.5-2.2C29,15.4,29.9,14,31,14c-1.4,0-2.6,0.6-3.5,1.4C26.6,14.6,25.4,14,24,14c1.7,0,3,3.3,3,5s-1.3,3-3,3s-3-1.3-3-3s1.3-5,3-5c-1.4,0-2.6,0.6-3.5,1.4C19.6,14.6,18.4,14,17,14c1.1,0,2,1.4,2.5,2.8C19.2,17.5,19,18.2,19,19c0,0.6,0.1,1.3,0.4,1.8C18.8,21.5,18,22,17,22c-1.7,0-3-1.3-3-3s1.3-5,3-5c-1.1,0-2.2,0.4-3,1c-0.8-0.6-1.9-1-3-1c0.8,0,1.6,0.8,2.1,1.9C12.4,16.7,12,17.8,12,19c0,0.9,0.2,1.7,0.7,2.5c-0.5,0.3-1,0.5-1.7,0.5c-1.7,0-3-1.3-3-3s1.3-5,3-5c-2.8,0-5,2.2-5,5c0,1.6,0.8,3.1,2,4c-0.6,0.8-1,1.9-1,3c0,2.2,1.5,4.1,3.5,4.8C10.2,31.4,10,32.2,10,33c0,2.4,1.7,4.4,4,4.9c0,0,0,0.1,0,0.1c0,2.8,2.2,5,5,5c0.1,0,0.3,0,0.4,0c0.8,1.8,2.5,3,4.6,3c2.1,0,3.8-1.3,4.6-3c0.1,0,0.3,0,0.4,0c2.8,0,5-2.2,5-5c0,0,0-0.1,0-0.1c2.3-0.5,4-2.5,4-4.9c0-0.8-0.2-1.6-0.6-2.2c2.1-0.6,3.6-2.5,3.6-4.8c0-1.1-0.4-2.2-1-3C41.2,22.1,42,20.6,42,19z M26.1,23.5c0.5-0.2,1-0.6,1.4-1c0.7,0.7,1.6,1.2,2.6,1.4c0.5,1,0.9,2.3,0.9,3.1c0,1.7-1.3,3-3,3s-3-1.3-3-3C25,26.1,25.4,24.6,26.1,23.5z M24,24C24,24,24,24,24,24C24,24,24,24,24,24C24,24,24,24,24,24C24,24,24,24,24,24z M24,30c0.6,0.8,1.5,1.5,2.5,1.8c0.3,0.8,0.5,1.6,0.5,2.3c0,1.7-1.3,3-3,3s-3-1.3-3-3c0-0.6,0.2-1.4,0.5-2.3C22.5,31.4,23.4,30.8,24,30z M17.9,23.9c1-0.2,1.9-0.7,2.6-1.4c0.4,0.4,0.9,0.7,1.4,1c0.7,1.1,1.1,2.5,1.1,3.5c0,1.7-1.3,3-3,3s-3-1.3-3-3C17,26.2,17.3,25,17.9,23.9z M9,26c0-0.6,0.2-1.4,0.5-2.3c0.5,0.2,1,0.3,1.5,0.3c1.1,0,2.2-0.4,3-1c0.1,0.1,0.2,0.1,0.3,0.2c0.5,1,0.7,2.1,0.7,2.8c0,1.7-1.3,3-3,3S9,27.7,9,26z M15,36c-1.7,0-3-1.3-3-3c0-0.6,0.2-1.3,0.4-2c1.3-0.1,2.4-0.7,3.2-1.6c0.5,0.9,1.2,1.6,2.1,2C17.9,32,18,32.6,18,33C18,34.7,16.7,36,15,36z M16,38c0,0,0-0.1,0-0.1l0,0c1.4-0.3,2.5-1.1,3.2-2.3c0.2,0.5,0.4,1,0.8,1.4l1.3,1.2c0.2,0.1,0.4,0.2,0.6,0.3C21.7,39.9,20.5,41,19,41C17.3,41,16,39.7,16,38z M24,44c-1.1,0-2.1-0.7-2.6-1.6c1.3-0.7,2.2-1.9,2.5-3.4c0,0,0.1,0,0.1,0s0.1,0,0.1,0c0.3,1.5,1.3,2.7,2.5,3.4C26.1,43.3,25.1,44,24,44z M29,41c-1.5,0-2.7-1.1-2.9-2.5c0.2-0.1,0.4-0.2,0.6-0.3L28,37c0.3-0.4,0.6-0.9,0.8-1.4c0.7,1.1,1.8,2,3.2,2.3l0.1,0c0,0,0,0.1,0,0.1C32,39.7,30.7,41,29,41z M33,36c-1.7,0-3-1.3-3-3c0-0.4,0.1-1,0.3-1.6c0.9-0.5,1.6-1.2,2.1-2c0.8,0.9,2,1.4,3.2,1.6c0.3,0.7,0.4,1.5,0.4,2C36,34.7,34.7,36,33,36z M36,29c-1.7,0-3-1.3-3-3c0-0.8,0.3-1.8,0.7-2.8c0.1-0.1,0.2-0.1,0.3-0.2c0.8,0.6,1.9,1,3,1c0.5,0,1-0.1,1.5-0.3c0.3,0.8,0.5,1.6,0.5,2.3C39,27.7,37.7,29,36,29z" />
</svg>