<?xml version="1.0" encoding="utf-8"?>
<svg xmlns="http://www.w3.org/2000/svg" width="18" height="18" viewBox="0 0 48 48">
  <path fill="#689F38" d="M37.813,15.812c-2.813,2.813-7.736,2.11-7.736,2.11s-0.701-4.924,2.11-7.735C35,7.375,39.922,8.078,39.922,8.078S40.626,12.998,37.813,15.812z" />
  <path fill="#8BC34A" d="M30.529 19.222C36.894 19.929 43.965 27 43.965 27s.707-4.95-4.243-8.485C34.772 14.979 30.529 19.222 30.529 19.222zM28.886 17.471c-.707-6.364-7.778-13.436-7.778-13.436s4.95-.707 8.485 4.242C33.128 13.228 28.886 17.471 28.886 17.471z" />
  <path fill="#FF1744" d="M35.203,35.4c-5.368,5.37-20.68,11.008-26.646,5.042c-5.967-5.966-0.329-21.277,5.041-26.646c5.37-5.37,12.039-2.365,18.005,3.602C37.568,23.362,40.573,30.03,35.203,35.4z" />
  <path fill="#D50000" d="M16.232 15.232c.977-.977 2.559-.977 3.535 0s.977 2.559 0 3.535S16.977 19.977 16 19 15.256 16.209 16.232 15.232zM24.462 21.045c.977-.977 2.559-.977 3.535 0s.977 2.559 0 3.535-2.791 1.209-3.768.232S23.485 22.021 24.462 21.045zM11.446 34.019c.977-.977 2.559-.977 3.535 0s.977 2.559 0 3.535-2.791 1.209-3.768.232S10.47 34.995 11.446 34.019zM30.296 29.169c.977-.977 2.559-.977 3.535 0s.977 2.559 0 3.535-2.791 1.209-3.768.232S29.319 30.146 30.296 29.169zM13.449 24.016c.977-.977 2.559-.977 3.535 0s.977 2.559 0 3.535-2.791 1.209-3.768.232S12.473 24.992 13.449 24.016zM20.296 32.169c.977-.977 2.559-.977 3.535 0s.977 2.559 0 3.535-2.791 1.209-3.768.232S19.319 33.146 20.296 32.169z" />
  <g>
    <path fill="#FFC107" d="M18.707 17.707C18.316 18.098 16.391 19.391 16 19s.902-2.316 1.293-2.707 1.023-.391 1.414 0S19.098 17.316 18.707 17.707zM26.937 23.52c-.391.391-2.316 1.684-2.707 1.293s.902-2.316 1.293-2.707 1.023-.391 1.414 0S27.327 23.129 26.937 23.52zM13.921 36.493c-.391.391-2.316 1.684-2.707 1.293s.902-2.316 1.293-2.707 1.023-.391 1.414 0S14.312 36.103 13.921 36.493zM32.771 31.644c-.391.391-2.316 1.684-2.707 1.293s.902-2.316 1.293-2.707 1.023-.391 1.414 0S33.161 31.253 32.771 31.644zM15.924 26.49c-.391.391-2.316 1.684-2.707 1.293s.902-2.316 1.293-2.707 1.023-.391 1.414 0S16.314 26.1 15.924 26.49zM22.771 34.644c-.391.391-2.316 1.684-2.707 1.293s.902-2.316 1.293-2.707 1.023-.391 1.414 0S23.161 34.253 22.771 34.644z" />
  </g>
</svg>