<svg xmlns="http://www.w3.org/2000/svg" viewBox="0 0 48 48">
  <path d="M39.486328 6.9785156 A 1.50015 1.50015 0 0 0 38.439453 7.4394531L24 21.878906L9.5605469 7.4394531 A 1.50015 1.50015 0 0 0 8.484375 6.984375 A 1.50015 1.50015 0 0 0 7.4394531 9.5605469L21.878906 24L7.4394531 38.439453 A 1.50015 1.50015 0 1 0 9.5605469 40.560547L24 26.121094L38.439453 40.560547 A 1.50015 1.50015 0 1 0 40.560547 38.439453L26.121094 24L40.560547 9.5605469 A 1.50015 1.50015 0 0 0 39.486328 6.9785156 z" fill="#969696" />
</svg>