<svg xmlns="http://www.w3.org/2000/svg" viewBox="0 0 48 48">
  <path d="M36.5 4.0097656C34.577485 4.0097656 32.655396 4.7391354 31.197266 6.1972656L24.257812 13.136719L23.560547 12.439453 A 1.50015 1.50015 0 0 0 22.484375 11.984375 A 1.50015 1.50015 0 0 0 21.439453 14.560547L22.136719 15.257812L10.832031 26.560547C8.9451458 28.447433 7.9810627 30.997114 7.0449219 33.349609C6.1087811 35.702104 5.1920487 37.858733 4.0253906 39.025391 A 1.50015 1.50015 0 0 0 4.0253906 41.146484L6.8535156 43.974609 A 1.50015 1.50015 0 0 0 8.9746094 43.974609C10.141267 42.807951 12.224528 41.954944 14.554688 41.044922C16.884845 40.1349 19.46018 39.147242 21.439453 37.167969C23.306818 35.300604 27.785661 30.819909 32.742188 25.863281L33.439453 26.560547 A 1.50015 1.50015 0 1 0 35.560547 24.439453L34.863281 23.742188C37.595059 21.010405 41.558386 17.0487 41.802734 16.804688 A 1.50015 1.50015 0 0 0 41.804688 16.802734C44.72058 13.885596 44.719041 9.1135261 41.802734 6.1972656C40.344604 4.7391354 38.422515 4.0097656 36.5 4.0097656 z M 36.5 6.9902344C37.648485 6.9902344 38.796771 7.4334896 39.681641 8.3183594C41.45138 10.088099 41.451747 12.910779 39.681641 14.681641C39.429373 14.933563 35.47435 18.888926 32.742188 21.621094L26.378906 15.257812L33.318359 8.3183594C34.203229 7.4334896 35.351515 6.9902344 36.5 6.9902344 z M 24.257812 17.378906L30.621094 23.742188C25.666429 28.696956 21.183664 33.179617 19.316406 35.046875C17.931679 36.431602 15.773732 37.347522 13.462891 38.25C11.616367 38.971143 9.7521607 39.801109 8.109375 40.988281L7.0136719 39.892578C8.2201579 38.235469 9.084393 36.337778 9.8320312 34.458984C10.76539 32.113479 11.704011 29.932708 12.953125 28.683594L24.257812 17.378906 z" fill="#969696" />
</svg>