<svg xmlns="http://www.w3.org/2000/svg" viewBox="0 0 48 48">
  <path d="M24.009766 5 A 1.50015 1.50015 0 0 0 22.658203 5.8300781L17.505859 16.134766L5.2714844 18.017578 A 1.50015 1.50015 0 0 0 4.4394531 20.560547L12.902344 29.023438L11.017578 41.271484 A 1.50015 1.50015 0 0 0 13.193359 42.830078L24 37.191406L34.806641 42.830078 A 1.50015 1.50015 0 0 0 36.982422 41.271484L35.097656 29.023438L43.560547 20.560547 A 1.50015 1.50015 0 0 0 42.728516 18.017578L30.494141 16.134766L25.341797 5.8300781 A 1.50015 1.50015 0 0 0 24.009766 5 z" fill="#969696" />
</svg>