<?xml version="1.0" encoding="utf-8"?>
<svg xmlns="http://www.w3.org/2000/svg" viewBox="0 0 48 48" width="18" height="18">
  <path d="M13.5 5C11.458334 5 9.7371484 5.8196334 8.6289062 7.0664062C7.5206643 8.3131791 7 9.9166668 7 11.5C7 13.083333 7.5206643 14.686821 8.6289062 15.933594C9.4387298 16.844646 10.649706 17.393688 12 17.695312L12 18L12 19.5L12 30.304688C10.649706 30.606312 9.4387298 31.155354 8.6289062 32.066406C7.5206643 33.313179 7 34.916667 7 36.5C7 38.083333 7.5206643 39.686821 8.6289062 40.933594C9.7371484 42.180367 11.458334 43 13.5 43C17.072085 43 20 40.072082 20 36.5C20 33.458708 17.835368 31.002599 15 30.304688L15 25.478516C16.256666 26.428215 17.812995 27 19.5 27L28.166016 27C28.396194 28.063746 28.872325 29.08244 29.628906 29.933594C30.737148 31.180367 32.458334 32 34.5 32C38.072085 32 41 29.072082 41 25.5C41 21.927918 38.072085 19 34.5 19C32.458334 19 30.737148 19.819633 29.628906 21.066406C28.872325 21.91756 28.396194 22.936254 28.166016 24L19.5 24C16.996501 24 15 22.003499 15 19.5L15 18L15 17.695312C17.835368 16.997401 20 14.541292 20 11.5C20 7.9279176 17.072085 5 13.5 5 z M 13.5 8C15.450766 8 17 9.549235 17 11.5C17 13.420125 15.493369 14.934799 13.585938 14.982422 A 1.50015 1.50015 0 0 0 13.408203 14.982422C12.182432 14.958422 11.413375 14.551473 10.871094 13.941406C10.31267 13.313179 10 12.416667 10 11.5C10 10.583333 10.31267 9.6868209 10.871094 9.0585938C11.429518 8.4303665 12.208334 8 13.5 8 z M 34.5 22C36.450766 22 38 23.549235 38 25.5C38 27.450765 36.450766 29 34.5 29C33.208334 29 32.429518 28.569633 31.871094 27.941406C31.343546 27.347915 31.04419 26.513552 31.011719 25.650391 A 1.50015 1.50015 0 0 0 31.013672 25.345703C31.046958 24.483996 31.344376 23.651152 31.871094 23.058594C32.429518 22.430367 33.208334 22 34.5 22 z M 13.408203 33.017578 A 1.50015 1.50015 0 0 0 13.585938 33.017578C15.49337 33.065201 17 34.579875 17 36.5C17 38.450765 15.450766 40 13.5 40C12.208334 40 11.429518 39.569633 10.871094 38.941406C10.31267 38.313179 10 37.416667 10 36.5C10 35.583333 10.31267 34.686821 10.871094 34.058594C11.413375 33.448527 12.182432 33.041576 13.408203 33.017578 z" fill="#969696" />
</svg>