<?xml version="1.0" encoding="utf-8"?>
<svg xmlns="http://www.w3.org/2000/svg" viewBox="0 0 48 48" width="18" height="18">
  <path d="M26.558594 0.40039062C28.661594 5.4693906 19.012234 8.6032188 18.115234 12.824219C17.295234 16.708219 23.844609 21.21875 23.849609 21.21875C22.855609 19.61575 22.135719 18.287156 21.136719 15.785156C19.446719 11.559156 31.409594 7.7393906 26.558594 0.40039062 z M 32.957031 7.4257812C32.957031 7.4257812 24.507172 7.9840938 24.076172 13.621094C23.885172 16.127094 26.297188 17.463922 26.367188 19.294922C26.423188 20.784922 24.925781 22.025391 24.925781 22.025391C24.925781 22.025391 27.642234 21.49175 28.490234 19.21875C29.431234 16.69475 26.664219 14.966312 26.949219 12.945312C27.215219 11.015313 32.957031 7.4257813 32.957031 7.4257812 z M 18.044922 22.025391C18.044922 22.025391 8.6191406 21.861422 8.6191406 24.732422C8.6191406 27.725422 21.361797 27.939656 30.466797 26.097656C30.466797 26.097656 32.896922 24.364844 33.544922 23.714844C27.580922 24.980844 13.962891 25.151734 13.962891 24.052734C13.962891 23.039734 18.044922 22.025391 18.044922 22.025391 z M 37.576172 22.123047C36.48017 22.070729 35.258297 22.453328 34.154297 23.283203C36.324297 22.796203 38.152344 24.177531 38.152344 25.769531C38.152344 29.358531 33.179688 32.748047 33.179688 32.748047C33.179688 32.748047 40.878906 31.831453 40.878906 25.939453C40.879531 23.504453 39.402842 22.210244 37.576172 22.123047 z M 16.005859 27.578125C14.505859 27.578125 12.28125 28.784359 12.28125 29.943359C12.28125 32.268359 23.529516 34.063203 31.853516 30.658203L28.970703 29C23.324703 30.877 12.925859 30.099125 16.005859 27.578125 z M 17.388672 32.787109C15.339672 32.787109 14.013672 34.107359 14.013672 35.068359C14.013672 38.062359 26.234172 38.365172 31.076172 35.326172L28 33.283203C24.383 34.873203 15.295672 35.091109 17.388672 32.787109 z M 10.761719 35.154297C7.4284746 35.087031 5.2617187 36.652062 5.2617188 37.945312C5.2617187 44.836312 39.421875 44.503891 39.421875 37.462891C39.421875 36.290891 38.099953 35.738609 37.626953 35.474609C40.416953 42.202609 9.6816406 41.680984 9.6816406 37.708984C9.6816406 36.805984 11.944156 35.921844 14.035156 36.339844L12.257812 35.289062C11.736937 35.207313 11.237896 35.163906 10.761719 35.154297 z M 42.826172 39.931641C37.634172 45.059641 24.470422 46.927766 11.232422 43.759766C24.470422 49.398766 42.763172 46.222641 42.826172 39.931641 z" fill="#969696" />
</svg>