<svg xmlns="http://www.w3.org/2000/svg" viewBox="0 0 48 48">
  <path d="M24 4C12.972292 4 4 12.972292 4 24C4 27.275316 4.8627078 30.334853 6.2617188 33.064453L4.09375 40.828125C3.5887973 42.631528 5.3719261 44.41261 7.1757812 43.908203L14.943359 41.740234C17.671046 43.137358 20.726959 44 24 44C35.027708 44 44 35.027708 44 24C44 12.972292 35.027708 4 24 4 z M 24 7C33.406292 7 41 14.593708 41 24C41 33.406292 33.406292 41 24 41C20.997029 41 18.192258 40.218281 15.744141 38.853516 A 1.50015 1.50015 0 0 0 14.609375 38.71875L7.2226562 40.78125L9.2851562 33.398438 A 1.50015 1.50015 0 0 0 9.1503906 32.263672C7.7836522 29.813476 7 27.004518 7 24C7 14.593708 14.593708 7 24 7 z M 23.976562 12.978516 A 1.50015 1.50015 0 0 0 22.5 14.5L22.5 26.5 A 1.50015 1.50015 0 1 0 25.5 26.5L25.5 14.5 A 1.50015 1.50015 0 0 0 23.976562 12.978516 z M 24 31 A 2 2 0 0 0 24 35 A 2 2 0 0 0 24 31 z" fill="#969696" />
</svg>