<svg xmlns="http://www.w3.org/2000/svg" viewBox="0 0 48 48">
  <path d="M11.5 0C5.1664891 0 0 5.1664939 0 11.5C0 17.833506 5.1664891 23 11.5 23C17.833511 23 23 17.833506 23 11.5C23 5.1664939 17.833511 0 11.5 0 z M 11.5 3C16.212192 3 20 6.7878114 20 11.5C20 16.212189 16.212192 20 11.5 20C6.7878084 20 3 16.212189 3 11.5C3 6.7878114 6.7878084 3 11.5 3 z M 11.476562 4.9785156 A 1.50015 1.50015 0 0 0 10 6.5L10 11.5 A 1.50015 1.50015 0 0 0 10.439453 12.560547L12.439453 14.560547 A 1.50015 1.50015 0 1 0 14.560547 12.439453L13 10.878906L13 6.5 A 1.50015 1.50015 0 0 0 11.476562 4.9785156 z M 23.820312 6C24.244312 6.948 24.563766 7.952 24.759766 9L35.5 9C37.43 9 39 10.57 39 12.5L39 14L24.759766 14C24.562766 15.048 24.243313 16.052 23.820312 17L39 17L39 35.5C39 37.43 37.43 39 35.5 39L12.5 39C10.57 39 9 37.43 9 35.5L9 24.759766C7.952 24.562766 6.948 24.243313 6 23.820312L6 35.5C6 39.084 8.916 42 12.5 42L35.5 42C39.084 42 42 39.084 42 35.5L42 12.5C42 8.916 39.084 6 35.5 6L23.820312 6 z M 24 21 A 2.5 2.5 0 0 0 24 26 A 2.5 2.5 0 0 0 24 21 z M 32.5 21 A 2.5 2.5 0 0 0 32.5 26 A 2.5 2.5 0 0 0 32.5 21 z M 15.5 30 A 2.5 2.5 0 0 0 15.5 35 A 2.5 2.5 0 0 0 15.5 30 z M 24 30 A 2.5 2.5 0 0 0 24 35 A 2.5 2.5 0 0 0 24 30 z" fill="#969696" />
</svg>