<svg xmlns="http://www.w3.org/2000/svg" viewBox="0 0 48 48">
  <path d="M34.417969 1 A 1.50015 1.50015 0 0 0 32.951172 2.0097656L30.90625 7.9335938C28.361228 6.7082773 25.514539 6 22.5 6C11.748317 6 3 14.748317 3 25.5C3 36.251683 11.748317 45 22.5 45C33.251683 45 42 36.251683 42 25.5C42 22.486387 41.292976 19.640132 40.068359 17.095703L45.990234 15.050781 A 1.50015 1.50015 0 0 0 46.917969 13.142578C44.96816 7.4914915 40.507522 3.0318739 34.857422 1.0820312 A 1.50015 1.50015 0 0 0 34.417969 1 z M 35.242188 4.5703125C38.885137 6.2199623 41.780245 9.116043 43.429688 12.759766L30.923828 17.076172L35.242188 4.5703125 z M 21 9.0761719L21 24L6.0761719 24C6.7879478 16.072054 13.072054 9.7879478 21 9.0761719 z M 24 9.078125C26.115779 9.2721916 28.110401 9.8645323 29.921875 10.785156L27.082031 19.009766 A 1.50015 1.50015 0 0 0 28.990234 20.917969L37.214844 18.080078C38.350134 20.314523 39 22.823879 39 25.5C39 29.523922 37.56634 33.202685 35.183594 36.0625L24 24.878906L24 9.078125 z M 6.0761719 27L21.878906 27L33.0625 38.183594C30.202685 40.56634 26.523922 42 22.5 42C13.876334 42 6.8323757 35.422796 6.0761719 27 z" fill="#969696" />
</svg>