<svg xmlns="http://www.w3.org/2000/svg" viewBox="0 0 48 48">
  <path d="M24 4C12.972066 4 4 12.972074 4 24C4 35.027926 12.972066 44 24 44C35.027934 44 44 35.027926 44 24C44 12.972074 35.027934 4 24 4 z M 24 7C33.406615 7 41 14.593391 41 24C41 33.406609 33.406615 41 24 41C14.593385 41 7 33.406609 7 24C7 14.593391 14.593385 7 24 7 z M 24 8.5 A 1.5 1.5 0 0 0 24 11.5 A 1.5 1.5 0 0 0 24 8.5 z M 14.101562 12.601562 A 1.5 1.5 0 0 0 14.101562 15.601562 A 1.5 1.5 0 0 0 14.101562 12.601562 z M 33.898438 12.601562 A 1.5 1.5 0 0 0 33.898438 15.601562 A 1.5 1.5 0 0 0 33.898438 12.601562 z M 34.498047 19.216797C32.208377 19.17827 24.126875 21.782219 23.234375 22.152344C22.214375 22.575344 21.729344 23.745625 22.152344 24.765625C22.575344 25.785625 23.745625 26.270656 24.765625 25.847656C25.786625 25.424656 35.508938 20.427203 35.085938 19.408203C35.033062 19.280578 34.825143 19.222301 34.498047 19.216797 z M 10 22.5 A 1.5 1.5 0 0 0 10 25.5 A 1.5 1.5 0 0 0 10 22.5 z M 38 22.5 A 1.5 1.5 0 0 0 38 25.5 A 1.5 1.5 0 0 0 38 22.5 z M 14.101562 32.398438 A 1.5 1.5 0 0 0 14.101562 35.398438 A 1.5 1.5 0 0 0 14.101562 32.398438 z M 33.898438 32.398438 A 1.5 1.5 0 0 0 33.898438 35.398438 A 1.5 1.5 0 0 0 33.898438 32.398438 z" fill="#969696" />
</svg>