<svg xmlns="http://www.w3.org/2000/svg" viewBox="0 0 48 48">
  <path d="M14.5 8C12.585045 8 11 9.5850452 11 11.5L11 13.482422L6.2011719 16.337891C4.8383234 17.148112 4 18.620613 4 20.205078L4 35.5C4 39.071938 6.9280619 42 10.5 42L37.5 42C41.071938 42 44 39.071938 44 35.5L44 20.207031C44 18.621621 43.162068 17.150026 41.800781 16.339844 A 1.50015 1.50015 0 0 0 41.798828 16.337891L37 13.484375L37 11.5C37 9.5850452 35.414955 8 33.5 8L14.5 8 z M 14.5 11L33.5 11C33.795045 11 34 11.204955 34 11.5L34 22.966797L24 27.832031L14 22.966797L14 14.568359 A 1.50015 1.50015 0 0 0 14 14.082031L14 11.5C14 11.204955 14.204955 11 14.5 11 z M 11 16.974609L11 21.507812L7.1289062 19.625C7.2513989 19.335647 7.4536236 19.082924 7.734375 18.916016L11 16.974609 z M 37 16.976562L40.265625 18.917969C40.544808 19.08459 40.746215 19.336598 40.869141 19.625L37 21.507812L37 16.976562 z M 7 22.898438L23.34375 30.849609 A 1.50015 1.50015 0 0 0 24.65625 30.849609L41 22.898438L41 35.5C41 37.450062 39.450062 39 37.5 39L10.5 39C8.5499381 39 7 37.450062 7 35.5L7 22.898438 z" fill="#969696" />
</svg>