<svg xmlns="http://www.w3.org/2000/svg" viewBox="0 0 48 48">
  <path d="M12.5 4C10.032499 4 8 6.0324991 8 8.5L8 39.5C8 41.967501 10.032499 44 12.5 44L35.5 44C37.967501 44 40 41.967501 40 39.5L40 16.5 A 1.50015 1.50015 0 0 0 39.560547 15.439453L39.544922 15.423828L28.560547 4.4394531 A 1.50015 1.50015 0 0 0 27.5 4L12.5 4 z M 12.5 7L26 7L26 13.5C26 15.967501 28.032499 18 30.5 18L37 18L37 39.5C37 40.346499 36.346499 41 35.5 41L12.5 41C11.653501 41 11 40.346499 11 39.5L11 8.5C11 7.6535009 11.653501 7 12.5 7 z M 29 9.1210938L34.878906 15L30.5 15C29.653501 15 29 14.346499 29 13.5L29 9.1210938 z M 17.5 22 A 1.50015 1.50015 0 1 0 17.5 25L30.5 25 A 1.50015 1.50015 0 1 0 30.5 22L17.5 22 z M 17.5 28 A 1.50015 1.50015 0 1 0 17.5 31L30.5 31 A 1.50015 1.50015 0 1 0 30.5 28L17.5 28 z M 17.5 34 A 1.50015 1.50015 0 1 0 17.5 37L26.5 37 A 1.50015 1.50015 0 1 0 26.5 34L17.5 34 z" fill="#969696" />
</svg>