<svg xmlns="http://www.w3.org/2000/svg" viewBox="0 0 48 48">
  <path d="M24 3.9882812C22.514682 3.9882813 21.030361 4.3356862 19.671875 5.03125 A 1.50015 1.50015 0 0 0 19.667969 5.0332031L7.9824219 11.048828C6.1540644 11.99046 5 13.882081 5 15.939453L5 32.060547C5 34.117292 6.1527495 36.008284 7.9824219 36.949219L19.667969 42.966797 A 1.50015 1.50015 0 0 0 19.669922 42.96875C22.386894 44.359878 25.611153 44.359878 28.328125 42.96875 A 1.50015 1.50015 0 0 0 28.332031 42.966797L40.017578 36.949219C41.845936 36.007587 42.998047 34.117292 42.998047 32.060547L42.998047 15.939453C42.998047 13.883203 41.846485 11.991947 40.017578 11.050781L40.015625 11.050781L28.332031 5.0332031 A 1.50015 1.50015 0 0 0 28.330078 5.03125C26.971639 4.3356831 25.485318 3.9882812 24 3.9882812 z M 24 6.9882812C25.015682 6.9882812 26.032376 7.2266888 26.962891 7.703125L38.642578 13.716797 A 1.50015 1.50015 0 0 0 38.644531 13.71875C39.478859 14.147815 39.998047 15.000198 39.998047 15.939453L39.998047 32.060547C39.998047 32.999802 39.478221 33.852835 38.642578 34.283203L26.960938 40.296875C25.101208 41.249082 22.90122 41.249659 21.041016 40.298828L21.037109 40.296875L9.3554688 34.283203 A 1.50015 1.50015 0 0 0 9.3554688 34.28125C8.5210871 33.852185 8 32.999802 8 32.060547L8 15.939453C8 14.998825 8.5198262 14.147165 9.3554688 13.716797L21.039062 7.703125C21.969577 7.2266888 22.984318 6.9882813 24 6.9882812 z M 11.470703 14.490234 A 1.50015 1.50015 0 0 0 10.808594 17.330078L19.640625 21.919922C20.546915 22.390594 21.517048 22.646273 22.5 22.804688L22.5 37.5 A 1.50015 1.50015 0 1 0 25.5 37.5L25.5 22.804688C26.482952 22.646272 27.451132 22.390594 28.357422 21.919922 A 1.50015 1.50015 0 0 0 28.359375 21.919922L37.191406 17.332031 A 1.5007827 1.5007827 0 1 0 35.808594 14.667969L26.974609 19.257812C26.047522 19.738934 25.03537 19.976673 24.023438 19.980469 A 1.50015 1.50015 0 0 0 23.970703 19.978516C22.960192 19.973716 21.94912 19.738557 21.023438 19.257812L12.191406 14.669922 A 1.50015 1.50015 0 0 0 11.470703 14.490234 z M 36.476562 22.978516 A 1.50015 1.50015 0 0 0 35 24.5L35 29.923828C35 29.944968 34.994902 29.955384 34.976562 29.964844 A 1.50015 1.50015 0 0 0 34.974609 29.964844L30.8125 32.107422 A 1.5007235 1.5007235 0 1 0 32.1875 34.775391L36.347656 32.630859C37.359284 32.110313 38 31.060687 38 29.923828L38 24.5 A 1.50015 1.50015 0 0 0 36.476562 22.978516 z" fill="#969696" />
</svg>