<svg xmlns="http://www.w3.org/2000/svg" viewBox="0 0 48 48">
  <path d="M19.5 6C16.657171 6 14.368919 8.2229693 14.101562 11L11.5 11C8.4802259 11 6 13.480226 6 16.5L6 36.5C6 39.519774 8.4802259 42 11.5 42L28.5 42C31.342829 42 33.631081 39.777031 33.898438 37L36.5 37C39.519774 37 42 34.519774 42 31.5L42 11.5C42 8.4802259 39.519774 6 36.5 6L19.5 6 z M 19.5 9L36.5 9C37.898226 9 39 10.101774 39 11.5L39 31.5C39 32.898226 37.898226 34 36.5 34L32.5 34 A 1.50015 1.50015 0 0 0 31 35.5L31 36.5C31 37.898226 29.898226 39 28.5 39L11.5 39C10.101774 39 9 37.898226 9 36.5L9 16.5C9 15.101774 10.101774 14 11.5 14L15.5 14 A 1.50015 1.50015 0 0 0 17 12.5L17 11.5C17 10.101774 18.101774 9 19.5 9 z M 18.5 14 A 1.5 1.5 0 0 0 18.5 17 A 1.5 1.5 0 0 0 18.5 14 z M 30.056641 15.003906C29.943016 15.014812 29.829953 15.044344 29.720703 15.089844C29.284703 15.270844 29 15.695969 29 16.167969L29 20.832031C29 21.304031 29.284703 21.730156 29.720703 21.910156C29.864703 21.970156 30.016016 22 30.166016 22C30.470016 22 30.768234 21.882203 30.990234 21.658203L33.324219 19.324219C33.780219 18.868219 33.780219 18.130781 33.324219 17.675781L30.990234 15.341797C30.740484 15.091297 30.397516 14.971187 30.056641 15.003906 z M 21.5 18 A 1.5 1.5 0 0 0 21.5 21 A 1.5 1.5 0 0 0 21.5 18 z M 24.5 22 A 1.5 1.5 0 0 0 24.5 25 A 1.5 1.5 0 0 0 24.5 22 z M 17.833984 26C17.529984 26 17.231766 26.117797 17.009766 26.341797L14.675781 28.675781C14.219781 29.131781 14.219781 29.869219 14.675781 30.324219L17.009766 32.658203C17.342766 32.992203 17.842297 33.092156 18.279297 32.910156C18.715297 32.729156 19 32.304031 19 31.832031L19 27.167969C19 26.695969 18.715297 26.269844 18.279297 26.089844C18.135297 26.029844 17.983984 26 17.833984 26 z M 27.5 26 A 1.5 1.5 0 0 0 27.5 29 A 1.5 1.5 0 0 0 27.5 26 z M 30.5 30 A 1.5 1.5 0 0 0 30.5 33 A 1.5 1.5 0 0 0 30.5 30 z" fill="#969696" />
</svg>