<svg xmlns="http://www.w3.org/2000/svg" viewBox="0 0 48 48">
  <path d="M25 2C21.704135 2 19 4.7041348 19 8L12.5 8C10.585045 8 9 9.5850452 9 11.5L9 18C5.7041348 18 3 20.704135 3 24C3 27.295865 5.7041348 30 9 30L9 36.5C9 38.414955 10.585045 40 12.5 40L19 40C19 43.295865 21.704135 46 25 46C28.295865 46 31 43.295865 31 40L37.5 40C39.414955 40 41 38.414955 41 36.5L41 28.5 A 1.50015 1.50015 0 0 0 39.5 27L37 27C35.325865 27 34 25.674135 34 24C34 22.325865 35.325865 21 37 21L39.5 21 A 1.50015 1.50015 0 0 0 41 19.5L41 11.5C41 9.5850452 39.414955 8 37.5 8L31 8C31 4.7041348 28.295865 2 25 2 z M 25 5C26.674135 5 28 6.3258652 28 8L28 9.5 A 1.50015 1.50015 0 0 0 29.5 11L37.5 11C37.795045 11 38 11.204955 38 11.5L38 18L37 18C33.704135 18 31 20.704135 31 24C31 27.295865 33.704135 30 37 30L38 30L38 36.5C38 36.795045 37.795045 37 37.5 37L29.5 37 A 1.50015 1.50015 0 0 0 28 38.5L28 40C28 41.674135 26.674135 43 25 43C23.325865 43 22 41.674135 22 40L22 38.5 A 1.50015 1.50015 0 0 0 20.5 37L12.5 37C12.204955 37 12 36.795045 12 36.5L12 28.5 A 1.50015 1.50015 0 0 0 10.5 27L9 27C7.3258652 27 6 25.674135 6 24C6 22.325865 7.3258652 21 9 21L10.5 21 A 1.50015 1.50015 0 0 0 12 19.5L12 11.5C12 11.204955 12.204955 11 12.5 11L20.5 11 A 1.50015 1.50015 0 0 0 22 9.5L22 8C22 6.3258652 23.325865 5 25 5 z" fill="#969696" />
</svg>