<svg xmlns="http://www.w3.org/2000/svg" viewBox="0 0 48 48">
  <path d="M24.023438 1 A 1.50015 1.50015 0 0 0 22.5 2.5L22.5 11L12.5 11 A 1.50015 1.50015 0 0 0 11.367188 11.515625L1.3671875 23.015625 A 1.50015 1.50015 0 0 0 2.5 25.5L11 25.5L11 35.5 A 1.50015 1.50015 0 0 0 11.515625 36.632812L23.015625 46.632812 A 1.50015 1.50015 0 0 0 25.5 45.5L25.5 37L35.5 37 A 1.50015 1.50015 0 0 0 36.632812 36.484375L46.632812 24.984375 A 1.50015 1.50015 0 0 0 45.5 22.5L37 22.5L37 12.5 A 1.50015 1.50015 0 0 0 36.484375 11.367188L24.984375 1.3671875 A 1.50015 1.50015 0 0 0 24.023438 1 z M 25.5 5.7929688L33.302734 12.576172L26.5 19.378906L25.5 18.378906L25.5 12.5L25.5 5.7929688 z M 16.121094 14L22.5 14L22.5 18.378906L21.5 19.378906L16.121094 14 z M 12.576172 14.697266L19.378906 21.5L18.378906 22.5L12.5 22.5L5.7929688 22.5L12.576172 14.697266 z M 34 16.121094L34 22.5L29.621094 22.5L28.621094 21.5L34 16.121094 z M 24 21.121094L26.878906 24L24 26.878906L21.121094 24L24 21.121094 z M 14 25.5L18.378906 25.5L19.378906 26.5L14 31.878906L14 25.5 z M 29.621094 25.5L35.5 25.5L42.207031 25.5L35.423828 33.302734L28.621094 26.5L29.621094 25.5 z M 21.5 28.621094L22.5 29.621094L22.5 35.5L22.5 42.207031L14.697266 35.423828L21.5 28.621094 z M 26.5 28.621094L31.878906 34L25.5 34L25.5 29.621094L26.5 28.621094 z" fill="#969696" />
</svg>