<svg xmlns="http://www.w3.org/2000/svg" viewBox="0 0 48 48">
  <path d="M20 4 A 1.50015 1.50015 0 0 0 18.658203 4.8300781L17.513672 7.1191406C10.905207 7.7301527 5 14.293528 5 23.5 A 1.50015 1.50015 0 0 0 5.6367188 24.726562C5.6367188 24.726562 8 26.648062 8 28.5 A 1.50015 1.50015 0 0 0 8.0195312 28.75C8.1170034 30.392566 9.1280569 31.574996 9.9941406 32.255859C10.574664 32.712233 10.811569 32.767175 11.15625 32.925781C13.253364 39.804439 18.183764 44 24 44C27.276627 44 30.271665 42.373441 32.603516 40.152344C34.738539 38.118725 36.261881 35.552495 37.048828 32.960938C37.414088 32.825111 37.587935 32.839931 38.105469 32.443359C38.995188 31.761594 39.92494 30.455721 39.988281 28.685547 A 1.5009267 1.5009267 0 0 0 40 28.447266C40 28.447266 39.831358 26.125332 42.220703 24.816406 A 1.50015 1.50015 0 0 0 43 23.5C43 22.423873 42.801845 17.719488 39.771484 13.054688C36.741124 8.3898857 30.745718 4 20 4 z M 20.882812 7.0878906C30.167963 7.3299472 34.797831 10.903722 37.255859 14.6875C39.564022 18.240583 39.871485 21.779435 39.921875 22.914062C39.153216 23.520385 38.599387 24.214401 38.181641 24.904297C38.068708 24.82432 37.949548 24.724989 37.845703 24.660156C37.645908 21.905874 36.666063 19.540011 35.136719 17.761719C33.442508 15.791722 31.259899 14.420532 29.128906 13.435547C24.86692 11.465577 20.666016 11.009766 20.666016 11.009766 A 1.50015 1.50015 0 0 0 20.517578 11 A 1.50015 1.50015 0 0 0 19.101562 11.957031C17.930875 14.974022 15.398437 15.003906 15.398438 15.003906 A 1.50015 1.50015 0 1 0 15.601562 17.996094C15.601562 17.996094 19.172001 17.469027 21.1875 14.146484C22.208051 14.299144 24.807398 14.742106 27.871094 16.158203C29.740101 17.022093 31.557492 18.200403 32.863281 19.71875C34.16907 21.237097 35 23.054606 35 25.5 A 1.50015 1.50015 0 0 0 35.990234 26.910156C35.990234 26.910156 37 27.101349 37 28.5C37 29.435571 36.665911 29.767746 36.28125 30.0625C35.896589 30.357254 35.552734 30.441406 35.552734 30.441406 A 1.50015 1.50015 0 0 0 34.429688 31.548828C33.911366 33.68486 32.459602 36.143613 30.533203 37.978516C28.606804 39.813418 26.260373 41 24 41C19.41 41 15.507731 37.886313 13.791016 31.513672 A 1.50015 1.50015 0 0 0 12.869141 30.498047C12.869141 30.498047 12.358792 30.300263 11.847656 29.898438C11.33652 29.496612 11 29.059481 11 28.5C11 27.820827 12.275391 26.785156 12.275391 26.785156 A 1.50015 1.50015 0 0 0 12.923828 25.974609L13.923828 22.974609 A 1.5008464 1.5008464 0 1 0 11.076172 22.025391L10.214844 24.609375C10.132848 24.660847 10.01149 24.757451 9.9082031 24.830078C9.274614 23.87433 8.5137054 23.24339 8.0507812 22.892578C8.3207705 14.931026 13.627719 10 18.5 10 A 1.50015 1.50015 0 0 0 19.841797 9.1699219L20.882812 7.0878906 z M 19 24 A 2 2 0 0 0 19 28 A 2 2 0 0 0 19 24 z M 29 24 A 2 2 0 0 0 29 28 A 2 2 0 0 0 29 24 z" fill="#969696" />
</svg>