<svg xmlns="http://www.w3.org/2000/svg" viewBox="0 0 48 48">
  <path d="M12.5 4C10.02 4 8 6.02 8 8.5L8 39.5C8 41.98 10.02 44 12.5 44L34.810547 44L31.810547 41L12.5 41C11.67 41 11 40.33 11 39.5L11 8.5C11 7.67 11.67 7 12.5 7L24 7L24 15.5C24 17.98 26.02 20 28.5 20L37 20L37 27.810547L40 30.810547L40 18.5C40 18.085 39.831797 17.710703 39.560547 17.439453L26.560547 4.4394531C26.289297 4.1682031 25.915 4 25.5 4L12.5 4 z M 27 9.1210938L34.878906 17L28.5 17C27.67 17 27 16.33 27 15.5L27 9.1210938 z M 25.433594 24.001953C25.070594 24.014953 24.711594 24.157547 24.433594 24.435547C24.156594 24.712547 24.014 25.069641 24 25.431641C23.993 25.632641 24.024656 25.834391 24.097656 26.025391L25.667969 31.505859C25.807969 31.988859 26.069734 32.433016 26.427734 32.791016L38.226562 44.589844C38.939563 45.303844 39.783969 45.764828 40.667969 45.923828C40.946969 45.973828 41.224047 45.999 41.498047 46C42.692047 46.003 43.820687 45.542641 44.679688 44.681641C45.539687 43.822641 46.002 42.694 46 41.5C45.999 41.226 45.974828 40.948922 45.923828 40.669922C45.764828 39.785922 45.303844 38.939562 44.589844 38.226562L32.791016 26.427734C32.434016 26.070734 31.988859 25.807969 31.505859 25.667969L26.025391 24.099609C25.835391 24.027609 25.634594 23.994953 25.433594 24.001953 z M 16.5 25 A 1.5 1.5 0 0 0 16.5 28 A 1.5 1.5 0 0 0 16.5 25 z M 21.5 25C20.67 25 20 25.67 20 26.5C20 27.33 20.67 28 21.5 28L22.580078 28L22.189453 26.640625C22.049453 26.230625 21.99 25.799609 22 25.349609C22.01 25.229609 22.019297 25.12 22.029297 25L21.5 25 z M 16.5 32 A 1.5 1.5 0 0 0 16.5 35 A 1.5 1.5 0 0 0 16.5 32 z M 21.5 32C20.67 32 20 32.67 20 33.5C20 34.33 20.67 35 21.5 35L25.800781 35L25.009766 34.210938C24.419766 33.610938 23.980234 32.870547 23.740234 32.060547L23.720703 32L21.5 32 z" fill="#969696" />
</svg>