<svg xmlns="http://www.w3.org/2000/svg" viewBox="0 0 48 48">
  <path d="M24 6C22.419922 6 21.041204 6.8117268 20.039062 8L15.5 8 A 1.50015 1.50015 0 0 0 14.095703 10.027344L16.708984 16.996094C13.825961 19.296909 4.6441886 27.518455 5.1015625 38.861328L5.1015625 38.865234L5.1015625 38.869141C5.3375933 43.943815 9.5089121 48 14.599609 48L33.5 48C38.590698 48 42.762016 43.943802 42.998047 38.869141L42.998047 38.865234L42.998047 38.861328C43.458906 27.431993 34.120661 19.159732 31.314453 16.933594L33.904297 10.027344 A 1.50015 1.50015 0 0 0 32.5 8L27.958984 8C26.950625 6.8435052 25.602819 6 24 6 z M 24 9C24.828571 9 25.664589 9.5034136 26.103516 10.255859 A 1.50015 1.50015 0 0 0 27.400391 11L30.335938 11L28.460938 16L19.539062 16L17.664062 11L20.599609 11 A 1.50015 1.50015 0 0 0 21.941406 10.169922C22.243264 9.5662066 23.171429 9 24 9 z M 19.015625 19L29.083984 19C30.815629 20.36076 40.414374 28.376215 40.001953 38.732422C39.837017 42.256808 37.008645 45 33.5 45L14.599609 45C11.093749 45 8.2686369 42.260583 8.0996094 38.740234L8.0996094 38.738281C7.6832042 28.379417 17.283654 20.361209 19.015625 19 z M 23.976562 21.978516 A 1.50015 1.50015 0 0 0 22.5 23.5L22.5 24.056641C20.465952 24.625274 18.900391 26.38843 18.900391 28.599609C18.900391 31.232943 21.065885 33.400391 23.699219 33.400391L25.199219 33.400391C26.165885 33.400391 27 34.232552 27 35.199219C27 36.221441 26.267448 37 25.300781 37L23.400391 37C22.715775 37 22.225795 36.632464 22.023438 36.025391 A 1.50015 1.50015 0 1 0 19.177734 36.974609C19.672085 38.45766 20.996791 39.373135 22.5 39.708984L22.5 40.5 A 1.50015 1.50015 0 1 0 25.5 40.5L25.5 39.958984C28.031427 39.843582 30 37.707418 30 35.199219C30 32.565885 27.832552 30.400391 25.199219 30.400391L23.699219 30.400391C22.732552 30.400391 21.900391 29.566276 21.900391 28.599609C21.900391 27.581222 22.611673 26.864876 23.673828 26.800781L24.400391 26.800781C25.008083 26.800781 25.56708 27.24421 25.777344 27.875 A 1.50015 1.50015 0 1 0 28.623047 26.925781C28.156292 25.525517 26.936775 24.591062 25.5 24.175781L25.5 23.5 A 1.50015 1.50015 0 0 0 23.976562 21.978516 z" fill="#969696" />
</svg>