<svg xmlns="http://www.w3.org/2000/svg" viewBox="0 0 48 48">
  <path d="M18 4.9980469C17.81 4.9980469 17.619453 5.034375 17.439453 5.109375L13.029297 6.8691406L9.109375 5.1308594C8.649375 4.9208594 8.1096875 4.9702344 7.6796875 5.2402344C7.2596875 5.5202344 7 5.99 7 6.5L7 37.5C7 40.53 9.47 43 12.5 43L33.5 43C33.65 43 33.799219 42.990469 33.949219 42.980469C33.679219 42.540469 33.460781 42.060547 33.300781 41.560547C33.130781 41.040547 33.099687 40.51 33.179688 40L12.5 40C11.12 40 10 38.88 10 37.5L10 8.8105469L12.390625 9.8691406C12.760625 10.039141 13.180547 10.040625 13.560547 9.890625L18 8.1191406L22.439453 9.890625C22.799453 10.040625 23.200547 10.040625 23.560547 9.890625L28 8.1191406L32.439453 9.890625C32.819453 10.040625 33.239375 10.039141 33.609375 9.8691406L36 8.8105469L36 27.140625C36.18 27.010625 36.370312 26.899062 36.570312 26.789062C36.830312 25.529062 37.77 24.510391 39 24.150391L39 6.5C39 5.99 38.740312 5.5202344 38.320312 5.2402344C37.890313 4.9702344 37.350625 4.9208594 36.890625 5.1308594L32.970703 6.8691406L28.560547 5.109375C28.200547 4.959375 27.799453 4.959375 27.439453 5.109375L23 6.8808594L18.560547 5.109375C18.380547 5.034375 18.19 4.9980469 18 4.9980469 z M 14.5 17 A 1.50015 1.50015 0 1 0 14.5 20L31.5 20 A 1.50015 1.50015 0 1 0 31.5 17L14.5 17 z M 14.5 26 A 1.50015 1.50015 0 1 0 14.5 29L23.5 29 A 1.50015 1.50015 0 1 0 23.5 26L14.5 26 z M 29.5 26 A 1.50015 1.50015 0 1 0 29.5 29L31.5 29 A 1.50015 1.50015 0 1 0 31.5 26L29.5 26 z M 40 26C39.172 26 38.5 26.672 38.5 27.5L38.5 28.158203C36.492 28.720203 35 30.558375 35 32.734375C35 35.362375 37.137625 37.501953 39.765625 37.501953L41.234375 37.501953C42.208375 37.501953 43.001953 38.293578 43.001953 39.267578C43.001953 40.232578 42.216 41.02325 41.25 41.03125L39.410156 41.048828C38.791156 41.048828 38.250453 40.652453 38.064453 40.064453C37.816453 39.275453 36.974594 38.834984 36.183594 39.083984C35.393594 39.332984 34.954125 40.174844 35.203125 40.964844C35.690125 42.509844 36.959953 43.618406 38.501953 43.941406L38.501953 44.5C38.501953 45.328 39.173953 46 40.001953 46C40.829953 46 41.501953 45.328 41.501953 44.5L41.501953 44.005859C43.999953 43.863859 46 41.793625 46 39.265625C46 36.637625 43.862375 34.5 41.234375 34.5L39.765625 34.5C38.792625 34.5 38 33.707469 38 32.730469C38 31.771469 38.780234 30.980797 39.740234 30.966797L40.5625 30.953125C41.1865 30.953125 41.728156 31.352266 41.910156 31.947266C42.153156 32.740266 42.995203 33.185359 43.783203 32.943359C44.576203 32.701359 45.021297 31.862312 44.779297 31.070312C44.303297 29.517312 43.046 28.400406 41.5 28.066406L41.5 27.5C41.5 26.672 40.828 26 40 26 z M 14.5 32 A 1.50015 1.50015 0 1 0 14.5 35L23.5 35 A 1.50015 1.50015 0 1 0 23.5 32L14.5 32 z M 29.5 32 A 1.50015 1.50015 0 1 0 29.5 35L31.5 35 A 1.50015 1.50015 0 1 0 31.5 32L29.5 32 z" fill="#969696" />
</svg>