<svg xmlns="http://www.w3.org/2000/svg" width="48" height="48" viewBox="0 0 48 48">
  <path d="M24 4C20.491685 4 17.570396 6.6214322 17.080078 10L10.238281 10 A 1.50015 1.50015 0 0 0 9.9804688 9.9785156 A 1.50015 1.50015 0 0 0 9.7578125 10L6.5 10 A 1.50015 1.50015 0 1 0 6.5 13L8.6386719 13L11.15625 39.029297C11.427329 41.835926 13.811782 44 16.630859 44L31.367188 44C34.186411 44 36.570826 41.836168 36.841797 39.029297L39.361328 13L41.5 13 A 1.50015 1.50015 0 1 0 41.5 10L38.244141 10 A 1.50015 1.50015 0 0 0 37.763672 10L30.919922 10C30.429604 6.6214322 27.508315 4 24 4 z M 24 7C25.879156 7 27.420767 8.2681608 27.861328 10L20.138672 10C20.579233 8.2681608 22.120844 7 24 7 z M 11.650391 13L36.347656 13L33.855469 38.740234C33.730439 40.035363 32.667963 41 31.367188 41L16.630859 41C15.331937 41 14.267499 40.033606 14.142578 38.740234L11.650391 13 z M 20.476562 17.978516 A 1.50015 1.50015 0 0 0 19 19.5L19 34.5 A 1.50015 1.50015 0 1 0 22 34.5L22 19.5 A 1.50015 1.50015 0 0 0 20.476562 17.978516 z M 27.476562 17.978516 A 1.50015 1.50015 0 0 0 26 19.5L26 34.5 A 1.50015 1.50015 0 1 0 29 34.5L29 19.5 A 1.50015 1.50015 0 0 0 27.476562 17.978516 z" fill="#969696" />
</svg>