<svg xmlns="http://www.w3.org/2000/svg" viewBox="0 0 48 48">
  <path d="M24 10C17.72 10 12.551969 14.85 12.042969 21L11.5 21C6.813 21 3 24.813 3 29.5C3 34.187 6.813 38 11.5 38L20.5 38L20.5 35L11.5 35C8.467 35 6 32.533 6 29.5C6 26.467 8.467 24 11.5 24L13.5 24C14.329 24 15 23.329 15 22.5L15 22C15 17.038 19.038 13 24 13C28.962 13 33 17.038 33 22L33 22.5C33 23.329 33.671 24 34.5 24L36.5 24C39.533 24 42 26.467 42 29.5C42 32.533 39.533 35 36.5 35L27.5 35L27.5 38L36.5 38C41.187 38 45 34.187 45 29.5C45 24.813 41.187 21 36.5 21L35.957031 21C35.448031 14.85 30.28 10 24 10 z M 23.976562 23.978516 A 1.50015 1.50015 0 0 0 22.802734 24.576172L18.439453 28.939453 A 1.50015 1.50015 0 1 0 20.560547 31.060547L22.5 29.121094L22.5 40.5 A 1.50015 1.50015 0 1 0 25.5 40.5L25.5 29.121094L27.439453 31.060547 A 1.50015 1.50015 0 1 0 29.560547 28.939453L25.189453 24.568359 A 1.50015 1.50015 0 0 0 23.976562 23.978516 z" fill="#969696" />
</svg>