<svg xmlns="http://www.w3.org/2000/svg" viewBox="0 0 48 48">
  <path d="M12.5 4C10.019 4 8 6.019 8 8.5L8 39.5C8 41.981 10.019 44 12.5 44L33 44L33 43.949219C30.609 43.711219 28.467094 42.625 26.871094 41L12.5 41C11.673 41 11 40.327 11 39.5L11 8.5C11 7.673 11.673 7 12.5 7L24 7L24 15.5C24 17.981 26.019 20 28.5 20L37 20L37 24.460938C38.095 24.805937 39.103 25.343531 40 26.019531L40 18.5C40 18.0855 39.832047 17.710828 39.560547 17.439453L26.560547 4.4394531C26.289047 4.1680781 25.914 4 25.5 4L12.5 4 z M 27 9.1210938L34.878906 17L28.5 17C27.673 17 27 16.327 27 15.5L27 9.1210938 z M 17.5 25C16.671 25 16 25.671 16 26.5C16 27.329 16.671 28 17.5 28L26 28C26.952 26.733 28.197719 25.699 29.636719 25L17.5 25 z M 34 26C29.589 26 26 29.589 26 34C26 38.411 29.589 42 34 42C35.665 42 37.210187 41.487281 38.492188 40.613281L43.439453 45.560547C43.732453 45.854547 44.116 46 44.5 46C44.884 46 45.267547 45.853547 45.560547 45.560547C46.145547 44.974547 46.145547 44.025453 45.560547 43.439453L40.615234 38.492188C41.488234 37.210187 42 35.665 42 34C42 29.589 38.411 26 34 26 z M 34 29C36.757 29 39 31.243 39 34C39 36.757 36.757 39 34 39C31.243 39 29 36.757 29 34C29 31.243 31.243 29 34 29 z M 17.5 32C16.671 32 16 32.671 16 33.5C16 34.329 16.671 35 17.5 35L24.050781 35C24.017781 34.671 24 34.338 24 34C24 33.315 24.068219 32.646 24.199219 32L17.5 32 z" fill="#969696" />
</svg>